/* XPM */
static char *b18pressed[] = {
/* columns rows colors chars-per-pixel */
"50 50 3 1 ",
"  c gray24",
". c #304879",
"X c #6BA1E8",
/* pixels */
"                                                  ",
"                                                  ",
"  XXXXXXXXXXXXXXXXXXXXXXXXXXXXXXXXXXXXXXXXXXXXXX  ",
"  XXXXXXXXXXXXXXXXXXXXXXXXXXXXXXXXXXXXXXXXXXXXXX  ",
"  XXXXXXXXXXXXXXXXXXXXXXXXXXXXXXXXXXXXXXXXXXXXXX  ",
"  XXXXXXXXXXXXXXXXXXXXXXXXXXXXXXXXXXXXXXXXXXXXXX  ",
"  XXXXXXXXXXXXXXXXXXXXXXXXXXXXXXXXXXXXXXXXXXXXXX  ",
"  XXXXXXXXXXXXXXXXXXXXXXXXXXXXXXXXXXXXXXXXXXXXXX  ",
"  XXXXXXXXXXXXXXXXXXXXXXXXXXXXXXXXXXXXXXXXXXXXXX  ",
"  XXXXXXXXXXXXXXXXXXXXXXXXXXXXXXXXXXXXXXXXXXXXXX  ",
"  XXXXXXXXXXXXXXXXXXXXXXXXXXXXXXXXXXXXXXXXXXXXXX  ",
"  XXXXXXXXXXXXXXXXXXXXXXXXXXXXXXXXXXXXXXXXXXXXXX  ",
"  XXXXXXXXXXXXXXXXXXXXXX..XXXXXXXXXXXXXXXXXXXXXX  ",
"  XXXXXXXXXXXXXXXXXXXXX....XXXXXXXXXXXXXXXXXXXXX  ",
"  XXXXXXXXXXXXXXXXXXXX......XXXXXXXXXXXXXXXXXXXX  ",
"  XXXXXXXXXXXXXXXXXXX........XXXXXXXXXXXXXXXXXXX  ",
"  XXXXXXXXXXXXXXXXXX..........XXXXXXXXXXXXXXXXXX  ",
"  XXXXXXXXXXXXXXXXX............XXXXXXXXXXXXXXXXX  ",
"  XXXXXXXXXXXXXXXX..............XXXXXXXXXXXXXXXX  ",
"  XXXXXXXXXXXXXXX................XXXXXXXXXXXXXXX  ",
"  XXXXXXXXXXXXXX..................XXXXXXXXXXXXXX  ",
"  XXXXXXXXXXXXX....................XXXXXXXXXXXXX  ",
"  XXXXXXXXXXXXX....................XXXXXXXXXXXXX  ",
"  XXXXXXXXXXXX......................XXXXXXXXXXXX  ",
"  XXXXXXXXXXXX......................XXXXXXXXXXXX  ",
"  XXXXXXXXXXXX......................XXXXXXXXXXXX  ",
"  XXXXXXXXXXXX......................XXXXXXXXXXXX  ",
"  XXXXXXXXXXXXX....................XXXXXXXXXXXXX  ",
"  XXXXXXXXXXXXX....................XXXXXXXXXXXXX  ",
"  XXXXXXXXXXXXXX.......X..X.......XXXXXXXXXXXXXX  ",
"  XXXXXXXXXXXXXXXX...XXX..XXX...XXXXXXXXXXXXXXXX  ",
"  XXXXXXXXXXXXXXXXXXXXXX..XXXXXXXXXXXXXXXXXXXXXX  ",
"  XXXXXXXXXXXXXXXXXXXXXX..XXXXXXXXXXXXXXXXXXXXXX  ",
"  XXXXXXXXXXXXXXXXXXXXX....XXXXXXXXXXXXXXXXXXXXX  ",
"  XXXXXXXXXXXXXXXXXXXXX....XXXXXXXXXXXXXXXXXXXXX  ",
"  XXXXXXXXXXXXXXXXXXXX......XXXXXXXXXXXXXXXXXXXX  ",
"  XXXXXXXXXXXXXXXXXXX........XXXXXXXXXXXXXXXXXXX  ",
"  XXXXXXXXXXXXXXXXXX..........XXXXXXXXXXXXXXXXXX  ",
"  XXXXXXXXXXXXXXXXXXXXXXXXXXXXXXXXXXXXXXXXXXXXXX  ",
"  XXXXXXXXXXXXXXXXXXXXXXXXXXXXXXXXXXXXXXXXXXXXXX  ",
"  XXXXXXXXXXXXXXXXXXXXXXXXXXXXXXXXXXXXXXXXXXXXXX  ",
"  XXXXXXXXXXXXXXXXXXXXXXXXXXXXXXXXXXXXXXXXXXXXXX  ",
"  XXXXXXXXXXXXXXXXXXXXXXXXXXXXXXXXXXXXXXXXXXXXXX  ",
"  XXXXXXXXXXXXXXXXXXXXXXXXXXXXXXXXXXXXXXXXXXXXXX  ",
"  XXXXXXXXXXXXXXXXXXXXXXXXXXXXXXXXXXXXXXXXXXXXXX  ",
"  XXXXXXXXXXXXXXXXXXXXXXXXXXXXXXXXXXXXXXXXXXXXXX  ",
"  XXXXXXXXXXXXXXXXXXXXXXXXXXXXXXXXXXXXXXXXXXXXXX  ",
"  XXXXXXXXXXXXXXXXXXXXXXXXXXXXXXXXXXXXXXXXXXXXXX  ",
"                                                  ",
"                                                  "
};
