/* XPM */
static char *b22[] = {
/* columns rows colors chars-per-pixel */
"50 50 5 1 ",
"  c gray24",
". c #582C73",
"X c #A62FCB",
"o c #C461DC",
"O c #F6B4FA",
/* pixels */
"                                                  ",
"                                                  ",
"  OOOOOOOOOOOOOOOOOOOOOOOOOOOOOOOOOOOOOOOOOOOOoo  ",
"  OOOOOOOOOOOOOOOOOOOOOOOOOOOOOOOOOOOOOOOOOOOOoo  ",
"  OOooooooooooooooooooooooooooooooooooooooooooXX  ",
"  OOooooooooooooooooooooooooooooooooooooooooooXX  ",
"  OOooooooooooooooooooooooooooooooooooooooooooXX  ",
"  OOooooooooooooooooooooooooooooooooooooooooooXX  ",
"  OOooooooooooooooooooooooooooooooooooooooooooXX  ",
"  OOooooooooooooooooooooooooooooooooooooooooooXX  ",
"  OOooooooooooooooooooooooooooooooooooooooooooXX  ",
"  OOooooooooooooooooooooooooooooooooooooooooooXX  ",
"  OOoooooooooooooooooooo..ooooooooooooooooooooXX  ",
"  OOooooooooooooooooooo....oooooooooooooooooooXX  ",
"  OOoooooooooooooooooo......ooooooooooooooooooXX  ",
"  OOooooooooooooooooo........oooooooooooooooooXX  ",
"  OOoooooooooooooooo..........ooooooooooooooooXX  ",
"  OOooooooooooooooo............oooooooooooooooXX  ",
"  OOoooooooooooooo..............ooooooooooooooXX  ",
"  OOooooooooooooo................oooooooooooooXX  ",
"  OOoooooooooooo..................ooooooooooooXX  ",
"  OOooooooooooo....................oooooooooooXX  ",
"  OOooooooooooo....................oooooooooooXX  ",
"  OOoooooooooo......................ooooooooooXX  ",
"  OOoooooooooo......................ooooooooooXX  ",
"  OOoooooooooo......................ooooooooooXX  ",
"  OOoooooooooo......................ooooooooooXX  ",
"  OOooooooooooo....................oooooooooooXX  ",
"  OOooooooooooo....................oooooooooooXX  ",
"  OOoooooooooooo.......o..o.......ooooooooooooXX  ",
"  OOoooooooooooooo...ooo..ooo...ooooooooooooooXX  ",
"  OOoooooooooooooooooooo..ooooooooooooooooooooXX  ",
"  OOoooooooooooooooooooo..ooooooooooooooooooooXX  ",
"  OOooooooooooooooooooo....oooooooooooooooooooXX  ",
"  OOooooooooooooooooooo....oooooooooooooooooooXX  ",
"  OOoooooooooooooooooo......ooooooooooooooooooXX  ",
"  OOooooooooooooooooo........oooooooooooooooooXX  ",
"  OOoooooooooooooooo..........ooooooooooooooooXX  ",
"  OOooooooooooooooooooooooooooooooooooooooooooXX  ",
"  OOooooooooooooooooooooooooooooooooooooooooooXX  ",
"  OOooooooooooooooooooooooooooooooooooooooooooXX  ",
"  OOooooooooooooooooooooooooooooooooooooooooooXX  ",
"  OOooooooooooooooooooooooooooooooooooooooooooXX  ",
"  OOooooooooooooooooooooooooooooooooooooooooooXX  ",
"  OOooooooooooooooooooooooooooooooooooooooooooXX  ",
"  OOooooooooooooooooooooooooooooooooooooooooooXX  ",
"  ooXXXXXXXXXXXXXXXXXXXXXXXXXXXXXXXXXXXXXXXXXXXX  ",
"  ooXXXXXXXXXXXXXXXXXXXXXXXXXXXXXXXXXXXXXXXXXXXX  ",
"                                                  ",
"                                                  "
};
