/* XPM */
static char *b3[] = {
/* columns rows colors chars-per-pixel */
"50 50 5 1 ",
"  c gray24",
". c #602329",
"X c #C02626",
"o c #D54E4E",
"O c #F99191",
/* pixels */
"                                                  ",
"                                                  ",
"  OOOOOOOOOOOOOOOOOOOOOOOOOOOOOOOOOOOOOOOOOOOOoo  ",
"  OOOOOOOOOOOOOOOOOOOOOOOOOOOOOOOOOOOOOOOOOOOOoo  ",
"  OOooooooooooooooooooooooooooooooooooooooooooXX  ",
"  OOooooooooooooooooooooooooooooooooooooooooooXX  ",
"  OOooooooooooooooooooooooooooooooooooooooooooXX  ",
"  OOooooooooooooooooooooooooooooooooooooooooooXX  ",
"  OOooooooooooooooooooooooooooooooooooooooooooXX  ",
"  OOooooooooooooooooooooooooooooooooooooooooooXX  ",
"  OOooooooooooooooooooooooooooooooooooooooooooXX  ",
"  OOooooooooooooooooooooooooooooooooooooooooooXX  ",
"  OOooooooooooooooooooooooooooooooooooooooooooXX  ",
"  OOooooooooooooooooooooooooooooooooooooooooooXX  ",
"  OOooooooooooooooooooooooooooooooooooooooooooXX  ",
"  OOoooooooooooooo...oooooooo...ooooooooooooooXX  ",
"  OOoooooooooooo.......oooo.......ooooooooooooXX  ",
"  OOooooooooooo.........oo.........oooooooooooXX  ",
"  OOooooooooooo....................oooooooooooXX  ",
"  OOoooooooooo......................ooooooooooXX  ",
"  OOoooooooooo......................ooooooooooXX  ",
"  OOoooooooooo......................ooooooooooXX  ",
"  OOoooooooooo......................ooooooooooXX  ",
"  OOooooooooooo....................oooooooooooXX  ",
"  OOooooooooooo....................oooooooooooXX  ",
"  OOoooooooooooo..................ooooooooooooXX  ",
"  OOooooooooooooo................oooooooooooooXX  ",
"  OOooooooooooooo................oooooooooooooXX  ",
"  OOoooooooooooooo..............ooooooooooooooXX  ",
"  OOooooooooooooooo............oooooooooooooooXX  ",
"  OOoooooooooooooooo..........ooooooooooooooooXX  ",
"  OOooooooooooooooooo........oooooooooooooooooXX  ",
"  OOoooooooooooooooooo......ooooooooooooooooooXX  ",
"  OOooooooooooooooooooo....oooooooooooooooooooXX  ",
"  OOoooooooooooooooooooo..ooooooooooooooooooooXX  ",
"  OOooooooooooooooooooooooooooooooooooooooooooXX  ",
"  OOooooooooooooooooooooooooooooooooooooooooooXX  ",
"  OOooooooooooooooooooooooooooooooooooooooooooXX  ",
"  OOooooooooooooooooooooooooooooooooooooooooooXX  ",
"  OOooooooooooooooooooooooooooooooooooooooooooXX  ",
"  OOooooooooooooooooooooooooooooooooooooooooooXX  ",
"  OOooooooooooooooooooooooooooooooooooooooooooXX  ",
"  OOooooooooooooooooooooooooooooooooooooooooooXX  ",
"  OOooooooooooooooooooooooooooooooooooooooooooXX  ",
"  OOooooooooooooooooooooooooooooooooooooooooooXX  ",
"  OOooooooooooooooooooooooooooooooooooooooooooXX  ",
"  ooXXXXXXXXXXXXXXXXXXXXXXXXXXXXXXXXXXXXXXXXXXXX  ",
"  ooXXXXXXXXXXXXXXXXXXXXXXXXXXXXXXXXXXXXXXXXXXXX  ",
"                                                  ",
"                                                  "
};
