/* XPM */
static char *result[] = {
/* columns rows colors chars-per-pixel */
"100 100 3 1 ",
"  c #413801",
". c #E6C603",
"X c #F4E797",
/* pixels */
"                                                                                                    ",
"                                                                                                    ",
"  ................................................................................................  ",
"  ................................................................................................  ",
"  ................................................................................................  ",
"  ................................................................................................  ",
"  ................................................................................................  ",
"  ....XX..XXXXXXXXXXXXXXXXXXXXXXXXXXXXXXXXXXXXXXXXXXXXXXXXXXXXXXXXXXXXXXXXXXXXXXXXXXXXXXXX..XX....  ",
"  ....XX..XXXXXXXXXXXXXXXXXXXXXXXXXXXXXXXXXXXXXXXXXXXXXXXXXXXXXXXXXXXXXXXXXXXXXXXXXXXXXXXX..XX....  ",
"  ................................................................................................  ",
"  ................................................................................................  ",
"  ....XX....................................................................................XX....  ",
"  ....XX..XXXXXXXXXXXXXXXXXXXXXXXXXXXXXXXXXXXXXXXXXXXXXXXXXXXXXXXXXXXXXXXXXXXXXXXXXXXXXXXX..XX....  ",
"  ....XX..XXXXXXXXXXXXXXXXXXXXXXXXXXXXXXXXXXXXXXXXXXXXXXXXXXXXXXXXXXXXXXXXXXXXXXXXXXXXXXXX..XX....  ",
"  ....XX..XX............................................................................XX..XX....  ",
"  ....XX..XX............................................................................XX..XX....  ",
"  ....XX..XX............................................................................XX..XX....  ",
"  ....XX..XX............................................................................XX..XX....  ",
"  ....XX..XX............................................................................XX..XX....  ",
"  ....XX..XX............................................................................XX..XX....  ",
"  ....XX..XX............................................................................XX..XX....  ",
"  ....XX..XX............................................................................XX..XX....  ",
"  ....XX..XX............................................................................XX..XX....  ",
"  ....XX..XX............................................................................XX..XX....  ",
"  ....XX..XX............................................................................XX..XX....  ",
"  ....XX..XX............................................................................XX..XX....  ",
"  ....XX..XX............................................................................XX..XX....  ",
"  ....XX..XX............................................................................XX..XX....  ",
"  ....XX..XX............................................................................XX..XX....  ",
"  ....XX..XX............................................................................XX..XX....  ",
"  ....XX..XX........................      ................      ........................XX..XX....  ",
"  ....XX..XX......................          ............          ......................XX..XX....  ",
"  ....XX..XX....................              ........              ....................XX..XX....  ",
"  ....XX..XX...................                ......                ...................XX..XX....  ",
"  ....XX..XX..................                  ....                  ..................XX..XX....  ",
"  ....XX..XX..................                   ..                   ..................XX..XX....  ",
"  ....XX..XX.................                                          .................XX..XX....  ",
"  ....XX..XX.................                                          .................XX..XX....  ",
"  ....XX..XX................                                            ................XX..XX....  ",
"  ....XX..XX................                                            ................XX..XX....  ",
"  ....XX..XX................                                            ................XX..XX....  ",
"  ....XX..XX................                                            ................XX..XX....  ",
"  ....XX..XX................                                            ................XX..XX....  ",
"  ....XX..XX................                                            ................XX..XX....  ",
"  ....XX..XX................                                            ................XX..XX....  ",
"  ....XX..XX................                                            ................XX..XX....  ",
"  ....XX..XX.................                                          .................XX..XX....  ",
"  ....XX..XX.................                                          .................XX..XX....  ",
"  ....XX..XX..................                                        ..................XX..XX....  ",
"  ....XX..XX..................                                        ..................XX..XX....  ",
"  ....XX..XX...................                                      ...................XX..XX....  ",
"  ....XX..XX....................                                    ....................XX..XX....  ",
"  ....XX..XX.....................                                  .....................XX..XX....  ",
"  ....XX..XX.....................                                  .....................XX..XX....  ",
"  ....XX..XX......................                                ......................XX..XX....  ",
"  ....XX..XX......................                                ......................XX..XX....  ",
"  ....XX..XX........................                            ........................XX..XX....  ",
"  ....XX..XX........................                            ........................XX..XX....  ",
"  ....XX..XX..........................                        ..........................XX..XX....  ",
"  ....XX..XX..........................                        ..........................XX..XX....  ",
"  ....XX..XX............................                    ............................XX..XX....  ",
"  ....XX..XX............................                    ............................XX..XX....  ",
"  ....XX..XX..............................                ..............................XX..XX....  ",
"  ....XX..XX..............................                ..............................XX..XX....  ",
"  ....XX..XX................................            ................................XX..XX....  ",
"  ....XX..XX................................            ................................XX..XX....  ",
"  ....XX..XX..................................        ..................................XX..XX....  ",
"  ....XX..XX..................................        ..................................XX..XX....  ",
"  ....XX..XX....................................    ....................................XX..XX....  ",
"  ....XX..XX....................................    ....................................XX..XX....  ",
"  ....XX..XX.....................................  .....................................XX..XX....  ",
"  ....XX..XX............................................................................XX..XX....  ",
"  ....XX..XX............................................................................XX..XX....  ",
"  ....XX..XX............................................................................XX..XX....  ",
"  ....XX..XX............................................................................XX..XX....  ",
"  ....XX..XX............................................................................XX..XX....  ",
"  ....XX..XX............................................................................XX..XX....  ",
"  ....XX..XX............................................................................XX..XX....  ",
"  ....XX..XX............................................................................XX..XX....  ",
"  ....XX..XX............................................................................XX..XX....  ",
"  ....XX..XX............................................................................XX..XX....  ",
"  ....XX..XX............................................................................XX..XX....  ",
"  ....XX..XX............................................................................XX..XX....  ",
"  ....XX..XX............................................................................XX..XX....  ",
"  ....XX..XX............................................................................XX..XX....  ",
"  ....XX..XX............................................................................XX..XX....  ",
"  ....XX..XXXXXXXXXXXXXXXXXXXXXXXXXXXXXXXXXXXXXXXXXXXXXXXXXXXXXXXXXXXXXXXXXXXXXXXXXXXXXXXX..XX....  ",
"  ....XX..XXXXXXXXXXXXXXXXXXXXXXXXXXXXXXXXXXXXXXXXXXXXXXXXXXXXXXXXXXXXXXXXXXXXXXXXXXXXXXXX..XX....  ",
"  ....XX....................................................................................XX....  ",
"  ................................................................................................  ",
"  ................................................................................................  ",
"  ....XX..XXXXXXXXXXXXXXXXXXXXXXXXXXXXXXXXXXXXXXXXXXXXXXXXXXXXXXXXXXXXXXXXXXXXXXXXXXXXXXXX..XX....  ",
"  ....XX..XXXXXXXXXXXXXXXXXXXXXXXXXXXXXXXXXXXXXXXXXXXXXXXXXXXXXXXXXXXXXXXXXXXXXXXXXXXXXXXX..XX....  ",
"  ................................................................................................  ",
"  ................................................................................................  ",
"  ................................................................................................  ",
"  ................................................................................................  ",
"  ................................................................................................  ",
"                                                                                                    ",
"                                                                                                    "
};
