/* XPM */
static char *card5[] = {
/* columns rows colors chars-per-pixel */
"100 100 3 1 ",
"  c #3A1908",
". c #CC5816",
"X c #EABA9F",
/* pixels */
"                                                                                                    ",
"                                                                                                    ",
"  ................................................................................................  ",
"  ................................................................................................  ",
"  ................................................................................................  ",
"  ................................................................................................  ",
"  ................................................................................................  ",
"  ....XX..XXXXXXXXXXXXXXXXXXXXXXXXXXXXXXXXXXXXXXXXXXXXXXXXXXXXXXXXXXXXXXXXXXXXXXXXXXXXXXXX..XX....  ",
"  ....XX..XXXXXXXXXXXXXXXXXXXXXXXXXXXXXXXXXXXXXXXXXXXXXXXXXXXXXXXXXXXXXXXXXXXXXXXXXXXXXXXX..XX....  ",
"  ................................................................................................  ",
"  ................................................................................................  ",
"  ....XX....................................................................................XX....  ",
"  ....XX..XXXXXXXXXXXXXXXXXXXXXXXXXXXXXXXXXXXXXXXXXXXXXXXXXXXXXXXXXXXXXXXXXXXXXXXXXXXXXXXX..XX....  ",
"  ....XX..XXXXXXXXXXXXXXXXXXXXXXXXXXXXXXXXXXXXXXXXXXXXXXXXXXXXXXXXXXXXXXXXXXXXXXXXXXXXXXXX..XX....  ",
"  ....XX..XX............................................................................XX..XX....  ",
"  ....XX..XX............................................................................XX..XX....  ",
"  ....XX..XX............................................................................XX..XX....  ",
"  ....XX..XX............................................................................XX..XX....  ",
"  ....XX..XX............................................................................XX..XX....  ",
"  ....XX..XX............................................................................XX..XX....  ",
"  ....XX..XX............................................................................XX..XX....  ",
"  ....XX..XX............................................................................XX..XX....  ",
"  ....XX..XX............................................................................XX..XX....  ",
"  ....XX..XX............................................................................XX..XX....  ",
"  ....XX..XX..................................        ..................................XX..XX....  ",
"  ....XX..XX................................            ................................XX..XX....  ",
"  ....XX..XX..............................                ..............................XX..XX....  ",
"  ....XX..XX.............................                  .............................XX..XX....  ",
"  ....XX..XX............................                    ............................XX..XX....  ",
"  ....XX..XX............................                    ............................XX..XX....  ",
"  ....XX..XX...........................                      ...........................XX..XX....  ",
"  ....XX..XX...........................                      ...........................XX..XX....  ",
"  ....XX..XX..........................                        ..........................XX..XX....  ",
"  ....XX..XX..........................                        ..........................XX..XX....  ",
"  ....XX..XX..........................                        ..........................XX..XX....  ",
"  ....XX..XX.........................                          .........................XX..XX....  ",
"  ....XX..XX.........................                          .........................XX..XX....  ",
"  ....XX..XX......................                                ......................XX..XX....  ",
"  ....XX..XX....................                                    ....................XX..XX....  ",
"  ....XX..XX...................                                      ...................XX..XX....  ",
"  ....XX..XX..................                                        ..................XX..XX....  ",
"  ....XX..XX..................                                        ..................XX..XX....  ",
"  ....XX..XX.................                                          .................XX..XX....  ",
"  ....XX..XX.................                                          .................XX..XX....  ",
"  ....XX..XX................                                            ................XX..XX....  ",
"  ....XX..XX................                                            ................XX..XX....  ",
"  ....XX..XX................                                            ................XX..XX....  ",
"  ....XX..XX................                                            ................XX..XX....  ",
"  ....XX..XX................                                            ................XX..XX....  ",
"  ....XX..XX................                                            ................XX..XX....  ",
"  ....XX..XX................                                            ................XX..XX....  ",
"  ....XX..XX................                                            ................XX..XX....  ",
"  ....XX..XX.................                                          .................XX..XX....  ",
"  ....XX..XX.................                                          .................XX..XX....  ",
"  ....XX..XX..................                                        ..................XX..XX....  ",
"  ....XX..XX..................                                        ..................XX..XX....  ",
"  ....XX..XX...................                .    .                ...................XX..XX....  ",
"  ....XX..XX....................              ..    ..              ....................XX..XX....  ",
"  ....XX..XX......................          ....    ....          ......................XX..XX....  ",
"  ....XX..XX........................      ......    ......      ........................XX..XX....  ",
"  ....XX..XX....................................    ....................................XX..XX....  ",
"  ....XX..XX...................................      ...................................XX..XX....  ",
"  ....XX..XX...................................      ...................................XX..XX....  ",
"  ....XX..XX...................................      ...................................XX..XX....  ",
"  ....XX..XX..................................        ..................................XX..XX....  ",
"  ....XX..XX..................................        ..................................XX..XX....  ",
"  ....XX..XX.................................          .................................XX..XX....  ",
"  ....XX..XX.................................          .................................XX..XX....  ",
"  ....XX..XX................................            ................................XX..XX....  ",
"  ....XX..XX................................            ................................XX..XX....  ",
"  ....XX..XX..............................                ..............................XX..XX....  ",
"  ....XX..XX..............................                ..............................XX..XX....  ",
"  ....XX..XX............................                    ............................XX..XX....  ",
"  ....XX..XX............................                    ............................XX..XX....  ",
"  ....XX..XX............................................................................XX..XX....  ",
"  ....XX..XX............................................................................XX..XX....  ",
"  ....XX..XX............................................................................XX..XX....  ",
"  ....XX..XX............................................................................XX..XX....  ",
"  ....XX..XX............................................................................XX..XX....  ",
"  ....XX..XX............................................................................XX..XX....  ",
"  ....XX..XX............................................................................XX..XX....  ",
"  ....XX..XX............................................................................XX..XX....  ",
"  ....XX..XX............................................................................XX..XX....  ",
"  ....XX..XX............................................................................XX..XX....  ",
"  ....XX..XX............................................................................XX..XX....  ",
"  ....XX..XX............................................................................XX..XX....  ",
"  ....XX..XXXXXXXXXXXXXXXXXXXXXXXXXXXXXXXXXXXXXXXXXXXXXXXXXXXXXXXXXXXXXXXXXXXXXXXXXXXXXXXX..XX....  ",
"  ....XX..XXXXXXXXXXXXXXXXXXXXXXXXXXXXXXXXXXXXXXXXXXXXXXXXXXXXXXXXXXXXXXXXXXXXXXXXXXXXXXXX..XX....  ",
"  ....XX....................................................................................XX....  ",
"  ................................................................................................  ",
"  ................................................................................................  ",
"  ....XX..XXXXXXXXXXXXXXXXXXXXXXXXXXXXXXXXXXXXXXXXXXXXXXXXXXXXXXXXXXXXXXXXXXXXXXXXXXXXXXXX..XX....  ",
"  ....XX..XXXXXXXXXXXXXXXXXXXXXXXXXXXXXXXXXXXXXXXXXXXXXXXXXXXXXXXXXXXXXXXXXXXXXXXXXXXXXXXX..XX....  ",
"  ................................................................................................  ",
"  ................................................................................................  ",
"  ................................................................................................  ",
"  ................................................................................................  ",
"  ................................................................................................  ",
"                                                                                                    ",
"                                                                                                    "
};
