/* XPM */
static char *col34pressed[] = {
/* columns rows colors chars-per-pixel */
"110 50 3 1 ",
"  c gray24",
". c #71757B",
"X c #E3E3E5",
/* pixels */
"                                                                                                              ",
"                                                                                                              ",
"  ..........................................................................................................  ",
"  ..........................................................................................................  ",
"  ..........................................................................................................  ",
"  ..........................................................................................................  ",
"  ..........................................................................................................  ",
"  ..........................................................................................................  ",
"  ..........................................................................................................  ",
"  ..........................................................................................................  ",
"  ..........................................................................................................  ",
"  ..................................................................................XX......................  ",
"  .................................................................................XXXX.....................  ",
"  .................................................................................XXXX.....................  ",
"  ................................................................................XXXXXX....................  ",
"  ................XXX........XXX..................................................XXXXXX....................  ",
"  ..............XXXXXXX....XXXXXXX...............................................XXXXXXXX...................  ",
"  .............XXXXXXXXX..XXXXXXXXX............XXXXX....XXXXXXX..................XXXXXXXX...................  ",
"  .............XXXXXXXXXXXXXXXXXXXX...........XXXXXXX...XXXXXXXX................XXXXXXXXXX..................  ",
"  ............XXXXXXXXXXXXXXXXXXXXXX.........XXX...XXX..XXX...XXX...............XXXXXXXXXX..................  ",
"  ............XXXXXXXXXXXXXXXXXXXXXX.........XX.....XX..XX.....XX..............XXXXXXXXXXXX.................  ",
"  ............XXXXXXXXXXXXXXXXXXXXXX.........XX.....XX..XX.....XX..............XXXXXXXXXXXX.................  ",
"  ............XXXXXXXXXXXXXXXXXXXXXX.........XX.....XX..XX....XXX.............XXXXXXXXXXXXXX................  ",
"  .............XXXXXXXXXXXXXXXXXXXX..........XX.....XX..XXXXXXXX..............XXXXXXXXXXXXXX................  ",
"  .............XXXXXXXXXXXXXXXXXXXX..........XX.....XX..XXXXXXX..............XXXXXXXXXXXXXXXX...............  ",
"  ..............XXXXXXXXXXXXXXXXXX...........XX.....XX..XX.XXX...............XXXXXXXXXXXXXXXX...............  ",
"  ...............XXXXXXXXXXXXXXXX............XX.....XX..XX..XX................XXXXXXXXXXXXXX................  ",
"  ...............XXXXXXXXXXXXXXXX............XX.....XX..XX..XXX...............XXXXXXXXXXXXXX................  ",
"  ................XXXXXXXXXXXXXX.............XX.....XX..XX...XX................XXXXXXXXXXXX.................  ",
"  .................XXXXXXXXXXXX..............XX.....XX..XX...XXX...............XXXXXXXXXXXX.................  ",
"  ..................XXXXXXXXXX...............XXX...XXX..XX....XX................XXXXXXXXXX..................  ",
"  ...................XXXXXXXX.................XXXXXXX...XX....XXX...............XXXXXXXXXX..................  ",
"  ....................XXXXXX...................XXXXX....XX.....XX................XXXXXXXX...................  ",
"  .....................XXXX......................................................XXXXXXXX...................  ",
"  ......................XX........................................................XXXXXX....................  ",
"  ................................................................................XXXXXX....................  ",
"  .................................................................................XXXX.....................  ",
"  .................................................................................XXXX.....................  ",
"  ..................................................................................XX......................  ",
"  ..........................................................................................................  ",
"  ..........................................................................................................  ",
"  ..........................................................................................................  ",
"  ..........................................................................................................  ",
"  ..........................................................................................................  ",
"  ..........................................................................................................  ",
"  ..........................................................................................................  ",
"  ..........................................................................................................  ",
"  ..........................................................................................................  ",
"                                                                                                              ",
"                                                                                                              "
};
