/* XPM */
static char *col12[] = {
/* columns rows colors chars-per-pixel */
"110 50 5 1 ",
"  c gray24",
". c #585D64",
"X c #808489",
"o c #B6B8BB",
"O c #E6E6E7",
/* pixels */
"                                                                                                              ",
"                                                                                                              ",
"  ooooooooooooooooooooooooooooooooooooooooooooooooooooooooooooooooooooooooooooooooooooooooooooooooooooooooXX  ",
"  ooooooooooooooooooooooooooooooooooooooooooooooooooooooooooooooooooooooooooooooooooooooooooooooooooooooooXX  ",
"  ooXXXXXXXXXXXXXXXXXXXXXXXXXXXXXXXXXXXXXXXXXXXXXXXXXXXXXXXXXXXXXXXXXXXXXXXXXXXXXXXXXXXXXXXXXXXXXXXXXXXXXX..  ",
"  ooXXXXXXXXXXXXXXXXXXXXXXXXXXXXXXXXXXXXXXXXXXXXXXXXXXXXXXXXXXXXXXXXXXXXXXXXXXXXXXXXXXXXXXXXXXXXXXXXXXXXXX..  ",
"  ooXXXXXXXXXXXXXXXXXXXXXXXXXXXXXXXXXXXXXXXXXXXXXXXXXXXXXXXXXXXXXXXXXXXXXXXXXXXXXXXXXXXXXXXXXXXXXXXXXXXXXX..  ",
"  ooXXXXXXXXXXXXXXXXXXXXXXXXXXXXXXXXXXXXXXXXXXXXXXXXXXXXXXXXXXXXXXXXXXXXXXXXXXXXXXXXXXXXXXXXXXXXXXXXXXXXXX..  ",
"  ooXXXXXXXXXXXXXXXXXXXXXXXXXXXXXXXXXXXXXXXXXXXXXXXXXXXXXXXXXXXXXXXXXXXXXXXXXXXXXXXXXXXXXXXXXXXXXXXXXXXXXX..  ",
"  ooXXXXXXXXXXXXXXXXXXXXXXXXXXXXXXXXXXXXXXXXXXXXXXXXXXXXXXXXXXXXXXXXXXXXXXXXXXXXXXXXXXXXXXXXXXXXXXXXXXXXXX..  ",
"  ooXXXXXXXXXXXXXXXXXXXXXXXXXXXXXXXXXXXXXXXXXXXXXXXXXXXXXXXXXXXXXXXXXXXXXXXXXXXXXXXXXXXXXXXXXXXXXXXXXXXXXX..  ",
"  ooXXXXXXXXXXXXXXXXXXXXXXXXXXXXXXXXXXXXXXXXXXXXXXXXXXXXXXXXXXXXXXXXXXXXXXXXXXXXXXXXOOXXXXXXXXXXXXXXXXXXXX..  ",
"  ooXXXXXXXXXXXXXXXXXXXOOOOXXXXXXXXXXXXXXXXXXXXXXXXXXXXXXXXXXXXXXXXXXXXXXXXXXXXXXXXOOOOXXXXXXXXXXXXXXXXXXX..  ",
"  ooXXXXXXXXXXXXXXXXXOOOOOOOOXXXXXXXXXXXXXXXXXXXXXXXXXXXXXXXXXXXXXXXXXXXXXXXXXXXXXOOOOOOXXXXXXXXXXXXXXXXXX..  ",
"  ooXXXXXXXXXXXXXXXXOOOOOOOOOOXXXXXXXXXXXXXXXXXXXXXXXXXXXXXXXXXXXXXXXXXXXXXXXXXXXOOOOOOOOXXXXXXXXXXXXXXXXX..  ",
"  ooXXXXXXXXXXXXXXXXOOOOOOOOOOXXXXXXXXXXXXXXXXXXXXXXXXXXXXXXXXXXXXXXXXXXXXXXXXXXOOOOOOOOOOXXXXXXXXXXXXXXXX..  ",
"  ooXXXXXXXXXXXXXXXOOOOOOOOOOOOXXXXXXXXXXXXXXXXXXXXXXXXXXXXXXXXXXXXXXXXXXXXXXXXOOOOOOOOOOOOXXXXXXXXXXXXXXX..  ",
"  ooXXXXXXXXXXXXXXXOOOOOOOOOOOOXXXXXXXXXXXXXXXXOOOOOXXXXOOOOOOOXXXXXXXXXXXXXXXOOOOOOOOOOOOOOXXXXXXXXXXXXXX..  ",
"  ooXXXXXXXXXXXXXXXOOOOOOOOOOOOXXXXXXXXXXXXXXXOOOOOOOXXXOOOOOOOOXXXXXXXXXXXXXOOOOOOOOOOOOOOOOXXXXXXXXXXXXX..  ",
"  ooXXXXXXXXXXXXOOOOOOOOOOOOOOOOOOXXXXXXXXXXXOOOXXXOOOXXOOOXXXOOOXXXXXXXXXXXOOOOOOOOOOOOOOOOOOXXXXXXXXXXXX..  ",
"  ooXXXXXXXXXXXOOOOOOOOOOOOOOOOOOOOXXXXXXXXXXOOXXXXXOOXXOOXXXXXOOXXXXXXXXXXOOOOOOOOOOOOOOOOOOOOXXXXXXXXXXX..  ",
"  ooXXXXXXXXXXXOOOOOOOOOOOOOOOOOOOOXXXXXXXXXXOOXXXXXOOXXOOXXXXXOOXXXXXXXXXXOOOOOOOOOOOOOOOOOOOOXXXXXXXXXXX..  ",
"  ooXXXXXXXXXXOOOOOOOOOOOOOOOOOOOOOOXXXXXXXXXOOXXXXXOOXXOOXXXXOOOXXXXXXXXXOOOOOOOOOOOOOOOOOOOOOOXXXXXXXXXX..  ",
"  ooXXXXXXXXXXOOOOOOOOOOOOOOOOOOOOOOXXXXXXXXXOOXXXXXOOXXOOOOOOOOXXXXXXXXXXOOOOOOOOOOOOOOOOOOOOOOXXXXXXXXXX..  ",
"  ooXXXXXXXXXXOOOOOOOOOOOOOOOOOOOOOOXXXXXXXXXOOXXXXXOOXXOOOOOOOXXXXXXXXXXXOOOOOOOOOOOOOOOOOOOOOOXXXXXXXXXX..  ",
"  ooXXXXXXXXXXOOOOOOOOOOOOOOOOOOOOOOXXXXXXXXXOOXXXXXOOXXOOXOOOXXXXXXXXXXXXOOOOOOOOOOOOOOOOOOOOOOXXXXXXXXXX..  ",
"  ooXXXXXXXXXXXOOOOOOOOOOOOOOOOOOOOXXXXXXXXXXOOXXXXXOOXXOOXXOOXXXXXXXXXXXXXOOOOOOOOOOOOOOOOOOOOXXXXXXXXXXX..  ",
"  ooXXXXXXXXXXXOOOOOOOOOOOOOOOOOOOOXXXXXXXXXXOOXXXXXOOXXOOXXOOOXXXXXXXXXXXXOOOOOOOOOOOOOOOOOOOOXXXXXXXXXXX..  ",
"  ooXXXXXXXXXXXXOOOOOOOXOOXOOOOOOOXXXXXXXXXXXOOXXXXXOOXXOOXXXOOXXXXXXXXXXXXXOOOOOOOXOOXOOOOOOOXXXXXXXXXXXX..  ",
"  ooXXXXXXXXXXXXXXOOOXXXOOXXXOOOXXXXXXXXXXXXXOOXXXXXOOXXOOXXXOOOXXXXXXXXXXXXXXOOOXXXOOXXXOOOXXXXXXXXXXXXXX..  ",
"  ooXXXXXXXXXXXXXXXXXXXXOOXXXXXXXXXXXXXXXXXXXOOOXXXOOOXXOOXXXXOOXXXXXXXXXXXXXXXXXXXXOOXXXXXXXXXXXXXXXXXXXX..  ",
"  ooXXXXXXXXXXXXXXXXXXXXOOXXXXXXXXXXXXXXXXXXXXOOOOOOOXXXOOXXXXOOOXXXXXXXXXXXXXXXXXXXOOXXXXXXXXXXXXXXXXXXXX..  ",
"  ooXXXXXXXXXXXXXXXXXXXOOOOXXXXXXXXXXXXXXXXXXXXOOOOOXXXXOOXXXXXOOXXXXXXXXXXXXXXXXXXOOOOXXXXXXXXXXXXXXXXXXX..  ",
"  ooXXXXXXXXXXXXXXXXXXXOOOOXXXXXXXXXXXXXXXXXXXXXXXXXXXXXXXXXXXXXXXXXXXXXXXXXXXXXXXXOOOOXXXXXXXXXXXXXXXXXXX..  ",
"  ooXXXXXXXXXXXXXXXXXXOOOOOOXXXXXXXXXXXXXXXXXXXXXXXXXXXXXXXXXXXXXXXXXXXXXXXXXXXXXXOOOOOOXXXXXXXXXXXXXXXXXX..  ",
"  ooXXXXXXXXXXXXXXXXXOOOOOOOOXXXXXXXXXXXXXXXXXXXXXXXXXXXXXXXXXXXXXXXXXXXXXXXXXXXXOOOOOOOOXXXXXXXXXXXXXXXXX..  ",
"  ooXXXXXXXXXXXXXXXXOOOOOOOOOOXXXXXXXXXXXXXXXXXXXXXXXXXXXXXXXXXXXXXXXXXXXXXXXXXXOOOOOOOOOOXXXXXXXXXXXXXXXX..  ",
"  ooXXXXXXXXXXXXXXXXXXXXXXXXXXXXXXXXXXXXXXXXXXXXXXXXXXXXXXXXXXXXXXXXXXXXXXXXXXXXXXXXXXXXXXXXXXXXXXXXXXXXXX..  ",
"  ooXXXXXXXXXXXXXXXXXXXXXXXXXXXXXXXXXXXXXXXXXXXXXXXXXXXXXXXXXXXXXXXXXXXXXXXXXXXXXXXXXXXXXXXXXXXXXXXXXXXXXX..  ",
"  ooXXXXXXXXXXXXXXXXXXXXXXXXXXXXXXXXXXXXXXXXXXXXXXXXXXXXXXXXXXXXXXXXXXXXXXXXXXXXXXXXXXXXXXXXXXXXXXXXXXXXXX..  ",
"  ooXXXXXXXXXXXXXXXXXXXXXXXXXXXXXXXXXXXXXXXXXXXXXXXXXXXXXXXXXXXXXXXXXXXXXXXXXXXXXXXXXXXXXXXXXXXXXXXXXXXXXX..  ",
"  ooXXXXXXXXXXXXXXXXXXXXXXXXXXXXXXXXXXXXXXXXXXXXXXXXXXXXXXXXXXXXXXXXXXXXXXXXXXXXXXXXXXXXXXXXXXXXXXXXXXXXXX..  ",
"  ooXXXXXXXXXXXXXXXXXXXXXXXXXXXXXXXXXXXXXXXXXXXXXXXXXXXXXXXXXXXXXXXXXXXXXXXXXXXXXXXXXXXXXXXXXXXXXXXXXXXXXX..  ",
"  ooXXXXXXXXXXXXXXXXXXXXXXXXXXXXXXXXXXXXXXXXXXXXXXXXXXXXXXXXXXXXXXXXXXXXXXXXXXXXXXXXXXXXXXXXXXXXXXXXXXXXXX..  ",
"  ooXXXXXXXXXXXXXXXXXXXXXXXXXXXXXXXXXXXXXXXXXXXXXXXXXXXXXXXXXXXXXXXXXXXXXXXXXXXXXXXXXXXXXXXXXXXXXXXXXXXXXX..  ",
"  ooXXXXXXXXXXXXXXXXXXXXXXXXXXXXXXXXXXXXXXXXXXXXXXXXXXXXXXXXXXXXXXXXXXXXXXXXXXXXXXXXXXXXXXXXXXXXXXXXXXXXXX..  ",
"  XX........................................................................................................  ",
"  XX........................................................................................................  ",
"                                                                                                              ",
"                                                                                                              "
};
