/* XPM */
static char *col3pressed[] = {
/* columns rows colors chars-per-pixel */
"50 50 3 1 ",
"  c gray24",
". c #71757B",
"X c #E3E3E5",
/* pixels */
"                                                  ",
"                                                  ",
"  ..............................................  ",
"  ..............................................  ",
"  ..............................................  ",
"  ..............................................  ",
"  ..............................................  ",
"  ..............................................  ",
"  ..............................................  ",
"  ..............................................  ",
"  ..............................................  ",
"  ..............................................  ",
"  ..............................................  ",
"  ..............................................  ",
"  ..............................................  ",
"  ................XXX........XXX................  ",
"  ..............XXXXXXX....XXXXXXX..............  ",
"  .............XXXXXXXXX..XXXXXXXXX.............  ",
"  .............XXXXXXXXXXXXXXXXXXXX.............  ",
"  ............XXXXXXXXXXXXXXXXXXXXXX............  ",
"  ............XXXXXXXXXXXXXXXXXXXXXX............  ",
"  ............XXXXXXXXXXXXXXXXXXXXXX............  ",
"  ............XXXXXXXXXXXXXXXXXXXXXX............  ",
"  .............XXXXXXXXXXXXXXXXXXXX.............  ",
"  .............XXXXXXXXXXXXXXXXXXXX.............  ",
"  ..............XXXXXXXXXXXXXXXXXX..............  ",
"  ...............XXXXXXXXXXXXXXXX...............  ",
"  ...............XXXXXXXXXXXXXXXX...............  ",
"  ................XXXXXXXXXXXXXX................  ",
"  .................XXXXXXXXXXXX.................  ",
"  ..................XXXXXXXXXX..................  ",
"  ...................XXXXXXXX...................  ",
"  ....................XXXXXX....................  ",
"  .....................XXXX.....................  ",
"  ......................XX......................  ",
"  ..............................................  ",
"  ..............................................  ",
"  ..............................................  ",
"  ..............................................  ",
"  ..............................................  ",
"  ..............................................  ",
"  ..............................................  ",
"  ..............................................  ",
"  ..............................................  ",
"  ..............................................  ",
"  ..............................................  ",
"  ..............................................  ",
"  ..............................................  ",
"                                                  ",
"                                                  "
};
