/* XPM */
static char *col34[] = {
/* columns rows colors chars-per-pixel */
"110 50 5 1 ",
"  c gray24",
". c #585D64",
"X c #808489",
"o c #B6B8BB",
"O c #E6E6E7",
/* pixels */
"                                                                                                              ",
"                                                                                                              ",
"  ooooooooooooooooooooooooooooooooooooooooooooooooooooooooooooooooooooooooooooooooooooooooooooooooooooooooXX  ",
"  ooooooooooooooooooooooooooooooooooooooooooooooooooooooooooooooooooooooooooooooooooooooooooooooooooooooooXX  ",
"  ooXXXXXXXXXXXXXXXXXXXXXXXXXXXXXXXXXXXXXXXXXXXXXXXXXXXXXXXXXXXXXXXXXXXXXXXXXXXXXXXXXXXXXXXXXXXXXXXXXXXXXX..  ",
"  ooXXXXXXXXXXXXXXXXXXXXXXXXXXXXXXXXXXXXXXXXXXXXXXXXXXXXXXXXXXXXXXXXXXXXXXXXXXXXXXXXXXXXXXXXXXXXXXXXXXXXXX..  ",
"  ooXXXXXXXXXXXXXXXXXXXXXXXXXXXXXXXXXXXXXXXXXXXXXXXXXXXXXXXXXXXXXXXXXXXXXXXXXXXXXXXXXXXXXXXXXXXXXXXXXXXXXX..  ",
"  ooXXXXXXXXXXXXXXXXXXXXXXXXXXXXXXXXXXXXXXXXXXXXXXXXXXXXXXXXXXXXXXXXXXXXXXXXXXXXXXXXXXXXXXXXXXXXXXXXXXXXXX..  ",
"  ooXXXXXXXXXXXXXXXXXXXXXXXXXXXXXXXXXXXXXXXXXXXXXXXXXXXXXXXXXXXXXXXXXXXXXXXXXXXXXXXXXXXXXXXXXXXXXXXXXXXXXX..  ",
"  ooXXXXXXXXXXXXXXXXXXXXXXXXXXXXXXXXXXXXXXXXXXXXXXXXXXXXXXXXXXXXXXXXXXXXXXXXXXXXXXXXXXXXXXXXXXXXXXXXXXXXXX..  ",
"  ooXXXXXXXXXXXXXXXXXXXXXXXXXXXXXXXXXXXXXXXXXXXXXXXXXXXXXXXXXXXXXXXXXXXXXXXXXXXXXXXXXXXXXXXXXXXXXXXXXXXXXX..  ",
"  ooXXXXXXXXXXXXXXXXXXXXXXXXXXXXXXXXXXXXXXXXXXXXXXXXXXXXXXXXXXXXXXXXXXXXXXXXXXXXXXXXOOXXXXXXXXXXXXXXXXXXXX..  ",
"  ooXXXXXXXXXXXXXXXXXXXXXXXXXXXXXXXXXXXXXXXXXXXXXXXXXXXXXXXXXXXXXXXXXXXXXXXXXXXXXXXOOOOXXXXXXXXXXXXXXXXXXX..  ",
"  ooXXXXXXXXXXXXXXXXXXXXXXXXXXXXXXXXXXXXXXXXXXXXXXXXXXXXXXXXXXXXXXXXXXXXXXXXXXXXXXXOOOOXXXXXXXXXXXXXXXXXXX..  ",
"  ooXXXXXXXXXXXXXXXXXXXXXXXXXXXXXXXXXXXXXXXXXXXXXXXXXXXXXXXXXXXXXXXXXXXXXXXXXXXXXXOOOOOOXXXXXXXXXXXXXXXXXX..  ",
"  ooXXXXXXXXXXXXXXOOOXXXXXXXXOOOXXXXXXXXXXXXXXXXXXXXXXXXXXXXXXXXXXXXXXXXXXXXXXXXXXOOOOOOXXXXXXXXXXXXXXXXXX..  ",
"  ooXXXXXXXXXXXXOOOOOOOXXXXOOOOOOOXXXXXXXXXXXXXXXXXXXXXXXXXXXXXXXXXXXXXXXXXXXXXXXOOOOOOOOXXXXXXXXXXXXXXXXX..  ",
"  ooXXXXXXXXXXXOOOOOOOOOXXOOOOOOOOOXXXXXXXXXXXXOOOOOXXXXOOOOOOOXXXXXXXXXXXXXXXXXXOOOOOOOOXXXXXXXXXXXXXXXXX..  ",
"  ooXXXXXXXXXXXOOOOOOOOOOOOOOOOOOOOXXXXXXXXXXXOOOOOOOXXXOOOOOOOOXXXXXXXXXXXXXXXXOOOOOOOOOOXXXXXXXXXXXXXXXX..  ",
"  ooXXXXXXXXXXOOOOOOOOOOOOOOOOOOOOOOXXXXXXXXXOOOXXXOOOXXOOOXXXOOOXXXXXXXXXXXXXXXOOOOOOOOOOXXXXXXXXXXXXXXXX..  ",
"  ooXXXXXXXXXXOOOOOOOOOOOOOOOOOOOOOOXXXXXXXXXOOXXXXXOOXXOOXXXXXOOXXXXXXXXXXXXXXOOOOOOOOOOOOXXXXXXXXXXXXXXX..  ",
"  ooXXXXXXXXXXOOOOOOOOOOOOOOOOOOOOOOXXXXXXXXXOOXXXXXOOXXOOXXXXXOOXXXXXXXXXXXXXXOOOOOOOOOOOOXXXXXXXXXXXXXXX..  ",
"  ooXXXXXXXXXXOOOOOOOOOOOOOOOOOOOOOOXXXXXXXXXOOXXXXXOOXXOOXXXXOOOXXXXXXXXXXXXXOOOOOOOOOOOOOOXXXXXXXXXXXXXX..  ",
"  ooXXXXXXXXXXXOOOOOOOOOOOOOOOOOOOOXXXXXXXXXXOOXXXXXOOXXOOOOOOOOXXXXXXXXXXXXXXOOOOOOOOOOOOOOXXXXXXXXXXXXXX..  ",
"  ooXXXXXXXXXXXOOOOOOOOOOOOOOOOOOOOXXXXXXXXXXOOXXXXXOOXXOOOOOOOXXXXXXXXXXXXXXOOOOOOOOOOOOOOOOXXXXXXXXXXXXX..  ",
"  ooXXXXXXXXXXXXOOOOOOOOOOOOOOOOOOXXXXXXXXXXXOOXXXXXOOXXOOXOOOXXXXXXXXXXXXXXXOOOOOOOOOOOOOOOOXXXXXXXXXXXXX..  ",
"  ooXXXXXXXXXXXXXOOOOOOOOOOOOOOOOXXXXXXXXXXXXOOXXXXXOOXXOOXXOOXXXXXXXXXXXXXXXXOOOOOOOOOOOOOOXXXXXXXXXXXXXX..  ",
"  ooXXXXXXXXXXXXXOOOOOOOOOOOOOOOOXXXXXXXXXXXXOOXXXXXOOXXOOXXOOOXXXXXXXXXXXXXXXOOOOOOOOOOOOOOXXXXXXXXXXXXXX..  ",
"  ooXXXXXXXXXXXXXXOOOOOOOOOOOOOOXXXXXXXXXXXXXOOXXXXXOOXXOOXXXOOXXXXXXXXXXXXXXXXOOOOOOOOOOOOXXXXXXXXXXXXXXX..  ",
"  ooXXXXXXXXXXXXXXXOOOOOOOOOOOOXXXXXXXXXXXXXXOOXXXXXOOXXOOXXXOOOXXXXXXXXXXXXXXXOOOOOOOOOOOOXXXXXXXXXXXXXXX..  ",
"  ooXXXXXXXXXXXXXXXXOOOOOOOOOOXXXXXXXXXXXXXXXOOOXXXOOOXXOOXXXXOOXXXXXXXXXXXXXXXXOOOOOOOOOOXXXXXXXXXXXXXXXX..  ",
"  ooXXXXXXXXXXXXXXXXXOOOOOOOOXXXXXXXXXXXXXXXXXOOOOOOOXXXOOXXXXOOOXXXXXXXXXXXXXXXOOOOOOOOOOXXXXXXXXXXXXXXXX..  ",
"  ooXXXXXXXXXXXXXXXXXXOOOOOOXXXXXXXXXXXXXXXXXXXOOOOOXXXXOOXXXXXOOXXXXXXXXXXXXXXXXOOOOOOOOXXXXXXXXXXXXXXXXX..  ",
"  ooXXXXXXXXXXXXXXXXXXXOOOOXXXXXXXXXXXXXXXXXXXXXXXXXXXXXXXXXXXXXXXXXXXXXXXXXXXXXXOOOOOOOOXXXXXXXXXXXXXXXXX..  ",
"  ooXXXXXXXXXXXXXXXXXXXXOOXXXXXXXXXXXXXXXXXXXXXXXXXXXXXXXXXXXXXXXXXXXXXXXXXXXXXXXXOOOOOOXXXXXXXXXXXXXXXXXX..  ",
"  ooXXXXXXXXXXXXXXXXXXXXXXXXXXXXXXXXXXXXXXXXXXXXXXXXXXXXXXXXXXXXXXXXXXXXXXXXXXXXXXOOOOOOXXXXXXXXXXXXXXXXXX..  ",
"  ooXXXXXXXXXXXXXXXXXXXXXXXXXXXXXXXXXXXXXXXXXXXXXXXXXXXXXXXXXXXXXXXXXXXXXXXXXXXXXXXOOOOXXXXXXXXXXXXXXXXXXX..  ",
"  ooXXXXXXXXXXXXXXXXXXXXXXXXXXXXXXXXXXXXXXXXXXXXXXXXXXXXXXXXXXXXXXXXXXXXXXXXXXXXXXXOOOOXXXXXXXXXXXXXXXXXXX..  ",
"  ooXXXXXXXXXXXXXXXXXXXXXXXXXXXXXXXXXXXXXXXXXXXXXXXXXXXXXXXXXXXXXXXXXXXXXXXXXXXXXXXXOOXXXXXXXXXXXXXXXXXXXX..  ",
"  ooXXXXXXXXXXXXXXXXXXXXXXXXXXXXXXXXXXXXXXXXXXXXXXXXXXXXXXXXXXXXXXXXXXXXXXXXXXXXXXXXXXXXXXXXXXXXXXXXXXXXXX..  ",
"  ooXXXXXXXXXXXXXXXXXXXXXXXXXXXXXXXXXXXXXXXXXXXXXXXXXXXXXXXXXXXXXXXXXXXXXXXXXXXXXXXXXXXXXXXXXXXXXXXXXXXXXX..  ",
"  ooXXXXXXXXXXXXXXXXXXXXXXXXXXXXXXXXXXXXXXXXXXXXXXXXXXXXXXXXXXXXXXXXXXXXXXXXXXXXXXXXXXXXXXXXXXXXXXXXXXXXXX..  ",
"  ooXXXXXXXXXXXXXXXXXXXXXXXXXXXXXXXXXXXXXXXXXXXXXXXXXXXXXXXXXXXXXXXXXXXXXXXXXXXXXXXXXXXXXXXXXXXXXXXXXXXXXX..  ",
"  ooXXXXXXXXXXXXXXXXXXXXXXXXXXXXXXXXXXXXXXXXXXXXXXXXXXXXXXXXXXXXXXXXXXXXXXXXXXXXXXXXXXXXXXXXXXXXXXXXXXXXXX..  ",
"  ooXXXXXXXXXXXXXXXXXXXXXXXXXXXXXXXXXXXXXXXXXXXXXXXXXXXXXXXXXXXXXXXXXXXXXXXXXXXXXXXXXXXXXXXXXXXXXXXXXXXXXX..  ",
"  ooXXXXXXXXXXXXXXXXXXXXXXXXXXXXXXXXXXXXXXXXXXXXXXXXXXXXXXXXXXXXXXXXXXXXXXXXXXXXXXXXXXXXXXXXXXXXXXXXXXXXXX..  ",
"  XX........................................................................................................  ",
"  XX........................................................................................................  ",
"                                                                                                              ",
"                                                                                                              "
};
