/* XPM */
static char *col12pressed[] = {
/* columns rows colors chars-per-pixel */
"110 50 3 1 ",
"  c gray24",
". c #71757B",
"X c #E3E3E5",
/* pixels */
"                                                                                                              ",
"                                                                                                              ",
"  ..........................................................................................................  ",
"  ..........................................................................................................  ",
"  ..........................................................................................................  ",
"  ..........................................................................................................  ",
"  ..........................................................................................................  ",
"  ..........................................................................................................  ",
"  ..........................................................................................................  ",
"  ..........................................................................................................  ",
"  ..........................................................................................................  ",
"  ..................................................................................XX......................  ",
"  .....................XXXX........................................................XXXX.....................  ",
"  ...................XXXXXXXX.....................................................XXXXXX....................  ",
"  ..................XXXXXXXXXX...................................................XXXXXXXX...................  ",
"  ..................XXXXXXXXXX..................................................XXXXXXXXXX..................  ",
"  .................XXXXXXXXXXXX................................................XXXXXXXXXXXX.................  ",
"  .................XXXXXXXXXXXX................XXXXX....XXXXXXX...............XXXXXXXXXXXXXX................  ",
"  .................XXXXXXXXXXXX...............XXXXXXX...XXXXXXXX.............XXXXXXXXXXXXXXXX...............  ",
"  ..............XXXXXXXXXXXXXXXXXX...........XXX...XXX..XXX...XXX...........XXXXXXXXXXXXXXXXXX..............  ",
"  .............XXXXXXXXXXXXXXXXXXXX..........XX.....XX..XX.....XX..........XXXXXXXXXXXXXXXXXXXX.............  ",
"  .............XXXXXXXXXXXXXXXXXXXX..........XX.....XX..XX.....XX..........XXXXXXXXXXXXXXXXXXXX.............  ",
"  ............XXXXXXXXXXXXXXXXXXXXXX.........XX.....XX..XX....XXX.........XXXXXXXXXXXXXXXXXXXXXX............  ",
"  ............XXXXXXXXXXXXXXXXXXXXXX.........XX.....XX..XXXXXXXX..........XXXXXXXXXXXXXXXXXXXXXX............  ",
"  ............XXXXXXXXXXXXXXXXXXXXXX.........XX.....XX..XXXXXXX...........XXXXXXXXXXXXXXXXXXXXXX............  ",
"  ............XXXXXXXXXXXXXXXXXXXXXX.........XX.....XX..XX.XXX............XXXXXXXXXXXXXXXXXXXXXX............  ",
"  .............XXXXXXXXXXXXXXXXXXXX..........XX.....XX..XX..XX.............XXXXXXXXXXXXXXXXXXXX.............  ",
"  .............XXXXXXXXXXXXXXXXXXXX..........XX.....XX..XX..XXX............XXXXXXXXXXXXXXXXXXXX.............  ",
"  ..............XXXXXXX.XX.XXXXXXX...........XX.....XX..XX...XX.............XXXXXXX.XX.XXXXXXX..............  ",
"  ................XXX...XX...XXX.............XX.....XX..XX...XXX..............XXX...XX...XXX................  ",
"  ......................XX...................XXX...XXX..XX....XX....................XX......................  ",
"  ......................XX....................XXXXXXX...XX....XXX...................XX......................  ",
"  .....................XXXX....................XXXXX....XX.....XX..................XXXX.....................  ",
"  .....................XXXX........................................................XXXX.....................  ",
"  ....................XXXXXX......................................................XXXXXX....................  ",
"  ...................XXXXXXXX....................................................XXXXXXXX...................  ",
"  ..................XXXXXXXXXX..................................................XXXXXXXXXX..................  ",
"  ..........................................................................................................  ",
"  ..........................................................................................................  ",
"  ..........................................................................................................  ",
"  ..........................................................................................................  ",
"  ..........................................................................................................  ",
"  ..........................................................................................................  ",
"  ..........................................................................................................  ",
"  ..........................................................................................................  ",
"  ..........................................................................................................  ",
"  ..........................................................................................................  ",
"  ..........................................................................................................  ",
"                                                                                                              ",
"                                                                                                              "
};
