/* XPM */
static char *drawcard[] = {
/* columns rows colors chars-per-pixel */
"110 50 5 1 ",
"  c gray24",
". c #585D64",
"X c #808489",
"o c #B6B8BB",
"O c #E6E6E7",
/* pixels */
"                                                                                                              ",
"                                                                                                              ",
"  ooooooooooooooooooooooooooooooooooooooooooooooooooooooooooooooooooooooooooooooooooooooooooooooooooooooooXX  ",
"  ooooooooooooooooooooooooooooooooooooooooooooooooooooooooooooooooooooooooooooooooooooooooooooooooooooooooXX  ",
"  ooXXXXXXXXXXXXXXXXXXXXXXXXXXXXXXXXXXXXXXXXXXXXXXXXXXXXXXXXXXXXXXXXXXXXXXXXXXXXXXXXXXXXXXXXXXXXXXXXXXXXXX..  ",
"  ooXXXXXXXXXXXXXXXXXXXXXXXXXXXXXXXXXXXXXXXXXXXXXXXXXXXXXXXXXXXXXXXXXXXXXXXXXXXXXXXXXXXXXXXXXXXXXXXXXXXXXX..  ",
"  ooXXXXXXXXXXXXXXXXXXXXXXXXXXXXXXXXXXXXXXXXXXXXXXXXXXXXXXXXXXXXXXXXXXXXXXXXXXXXXXXXXXXXXXXXXXXXXXXXXXXXXX..  ",
"  ooXXXXXXXXXXXXXXXXXXXXXXXXXXXXXXXXXXXXXXXXXXXXXXXXXXXXXXXXXXXXXXXXXXXXXXXXXXXXXXXXXXXXXXXXXXXXXXXXXXXXXX..  ",
"  ooXXXXXXXXXXXXXXXXXXXXXXXXXXXXXXXXXXXXXXXXXXXXXXXXXXXXXXXXXXXXXXXXXXXXXXXXXXXXXXXXXXXXXXXXXXXXXXXXXXXXXX..  ",
"  ooXXXXXXXXXXXXXXXXXXXXXXXXXXXXXXXXXXXXXXXXXXXXXXXXXXXXXXXXXXXXXXXXXXXXXXXXXXXXXXXXXXXXXXXXXXXXXXXXXXXXXX..  ",
"  ooXXXXXXXXXXXXXXXXXXXXXXXXXXXXXXXXXXXXXXXXXXXXXXXXXXXXXXXXXXXXXXXXXXXXXXXXXXXXXXXXXXXXXXXXXXXXXXXXXXXXXX..  ",
"  ooXXXXXXXXXXXXXXXXXXXXXXXXXXXXXXXXXXXXXXXXXXXXXXXXXXXXXXXXXXXXXXXXXXXXXXXXXXXXXXXXXXXXXXXXXXXXXXXXXXXXXX..  ",
"  ooXXXXXXXXXXXXXXXXXXXXXXXXXXXXXXXXXXXXXXXXXXXXXXXXXXXXXXXXXXXXXXXXXXXXXXXXXXXXXXXXXXXXXXXXXXXXXXXXXXXXXX..  ",
"  ooXXXXXXXXXXXXXXXXXXXXXXXXXXXXXXXXXXXXXXXXXXXXXXXXXXXXXXXXXXXXXXXXXXXXXXXXXXXXXXXXXXXXXXXXXXXXXXXXXXXXXX..  ",
"  ooXXXXXXXXXXXXXXXXXXXXXXXXXXXXXXXXXXXXXXXXXXXXXXXXXXXXXXXXXXXXXXXXXXXXXXXXXXXXXXXXXXXXXXXXXXXXXXXXXXXXXX..  ",
"  ooXXXXXXXXXXXXXXXXXXXXXXXXXXXXXXXXXXXXXXXXXXXXXXXXXXXXXXXXXXXXXXXXXXXXXXXXXXXXXXXXXXXXXXXXXXXXXXXXXXXXXX..  ",
"  ooXXXXXXXXXXXXXXXXXXXXXXXXXXXXXXXXXXXXXXXXXXXXXXXXXXXXXXXXXXXXXXXXXXXXXXXXXXXXXXXXXXXXXXXXXXXXXXXXXXXXXX..  ",
"  ooXXXOOOOOOOXXXXOOOOOOOXXXXXXOOOOOXXXXOOXXXXXXXXXOOXXXXXXXXXXOOOOOXXXXXXOOOOOXXXXOOOOOOOXXXXOOOOOOOXXXXX..  ",
"  ooXXXOOOOOOOOXXXOOOOOOOOXXXXOOOOOOOXXXOOXXXXXXXXXOOXXXXXXXXXOOOOOOOXXXXOOOOOOOXXXOOOOOOOOXXXOOOOOOOOXXXX..  ",
"  ooXXXOOXXXXOOOXXOOOXXXOOOXXXOOXXXOOXXXOOXXXXXXXXXOOXXXXXXXXOOOXXXOOOXXXOOXXXOOXXXOOOXXXOOOXXOOXXXXOOOXXX..  ",
"  ooXXXOOXXXXXOOXXOOXXXXXOOXXOOOXXXOOOXXOOXXXXXXXXXOOXXXXXXXXOOXXXXXOOXXOOOXXXOOOXXOOXXXXXOOXXOOXXXXXOOXXX..  ",
"  ooXXXOOXXXXXOOXXOOXXXXXOOXXOOXXXXXOOXXOOXXXXXXXXXOOXXXXXXXXOOXXXXXXXXXOOXXXXXOOXXOOXXXXXOOXXOOXXXXXOOXXX..  ",
"  ooXXXOOXXXXXOOXXOOXXXXOOOXXOOXXXXXOOXXOOXXXXXXXXXOOXXXXXXXXOOXXXXXXXXXOOXXXXXOOXXOOXXXXOOOXXOOXXXXXOOXXX..  ",
"  ooXXXOOXXXXXOOXXOOOOOOOOXXXOOXXXXXOOXXOOXXXXXXXXXOOXXXXXXXXOOXXXXXXXXXOOXXXXXOOXXOOOOOOOOXXXOOXXXXXOOXXX..  ",
"  ooXXXOOXXXXXOOXXOOOOOOOXXXXOOXXXXXOOXXOOXXXXXXXXXOOXXXXXXXXOOXXXXXXXXXOOXXXXXOOXXOOOOOOOXXXXOOXXXXXOOXXX..  ",
"  ooXXXOOXXXXXOOXXOOXOOOXXXXXOOOOOOOOOXXOOXXXXOXXXXOOXXXXXXXXOOXXXXXXXXXOOOOOOOOOXXOOXOOOXXXXXOOXXXXXOOXXX..  ",
"  ooXXXOOXXXXXOOXXOOXXOOXXXXXOOOOOOOOOXXOOXXXOOOXXXOOXXXXXXXXOOXXXXXXXXXOOOOOOOOOXXOOXXOOXXXXXOOXXXXXOOXXX..  ",
"  ooXXXOOXXXXXOOXXOOXXOOOXXXXOOXXXXXOOXXOOXXXOOOXXXOOXXXXXXXXOOXXXXXXXXXOOXXXXXOOXXOOXXOOOXXXXOOXXXXXOOXXX..  ",
"  ooXXXOOXXXXXOOXXOOXXXOOXXXXOOXXXXXOOXXOOXXOOOOOXXOOXXXXXXXXOOXXXXXXOXXOOXXXXXOOXXOOXXXOOXXXXOOXXXXXOOXXX..  ",
"  ooXXXOOXXXXXOOXXOOXXXOOOXXXOOXXXXXOOXXXOOXOOXOOXOOXXXXXXXXXOOXXXXXOOXXOOXXXXXOOXXOOXXXOOOXXXOOXXXXXOOXXX..  ",
"  ooXXXOOXXXXOOOXXOOXXXXOOXXXOOXXXXXOOXXXOOOOXXXOOOOXXXXXXXXXOOOXXXOOOXXOOXXXXXOOXXOOXXXXOOXXXOOXXXXOOOXXX..  ",
"  ooXXXOOOOOOOOXXXOOXXXXOOOXXOOXXXXXOOXXXXOOOXXXOOOXXXXXXXXXXXOOOOOOOXXXOOXXXXXOOXXOOXXXXOOOXXOOOOOOOOXXXX..  ",
"  ooXXXOOOOOOOXXXXOOXXXXXOOXXOOXXXXXOOXXXXOOXXXXXOOXXXXXXXXXXXXOOOOOXXXXOOXXXXXOOXXOOXXXXXOOXXOOOOOOOXXXXX..  ",
"  ooXXXXXXXXXXXXXXXXXXXXXXXXXXXXXXXXXXXXXXXXXXXXXXXXXXXXXXXXXXXXXXXXXXXXXXXXXXXXXXXXXXXXXXXXXXXXXXXXXXXXXX..  ",
"  ooXXXXXXXXXXXXXXXXXXXXXXXXXXXXXXXXXXXXXXXXXXXXXXXXXXXXXXXXXXXXXXXXXXXXXXXXXXXXXXXXXXXXXXXXXXXXXXXXXXXXXX..  ",
"  ooXXXXXXXXXXXXXXXXXXXXXXXXXXXXXXXXXXXXXXXXXXXXXXXXXXXXXXXXXXXXXXXXXXXXXXXXXXXXXXXXXXXXXXXXXXXXXXXXXXXXXX..  ",
"  ooXXXXXXXXXXXXXXXXXXXXXXXXXXXXXXXXXXXXXXXXXXXXXXXXXXXXXXXXXXXXXXXXXXXXXXXXXXXXXXXXXXXXXXXXXXXXXXXXXXXXXX..  ",
"  ooXXXXXXXXXXXXXXXXXXXXXXXXXXXXXXXXXXXXXXXXXXXXXXXXXXXXXXXXXXXXXXXXXXXXXXXXXXXXXXXXXXXXXXXXXXXXXXXXXXXXXX..  ",
"  ooXXXXXXXXXXXXXXXXXXXXXXXXXXXXXXXXXXXXXXXXXXXXXXXXXXXXXXXXXXXXXXXXXXXXXXXXXXXXXXXXXXXXXXXXXXXXXXXXXXXXXX..  ",
"  ooXXXXXXXXXXXXXXXXXXXXXXXXXXXXXXXXXXXXXXXXXXXXXXXXXXXXXXXXXXXXXXXXXXXXXXXXXXXXXXXXXXXXXXXXXXXXXXXXXXXXXX..  ",
"  ooXXXXXXXXXXXXXXXXXXXXXXXXXXXXXXXXXXXXXXXXXXXXXXXXXXXXXXXXXXXXXXXXXXXXXXXXXXXXXXXXXXXXXXXXXXXXXXXXXXXXXX..  ",
"  ooXXXXXXXXXXXXXXXXXXXXXXXXXXXXXXXXXXXXXXXXXXXXXXXXXXXXXXXXXXXXXXXXXXXXXXXXXXXXXXXXXXXXXXXXXXXXXXXXXXXXXX..  ",
"  ooXXXXXXXXXXXXXXXXXXXXXXXXXXXXXXXXXXXXXXXXXXXXXXXXXXXXXXXXXXXXXXXXXXXXXXXXXXXXXXXXXXXXXXXXXXXXXXXXXXXXXX..  ",
"  ooXXXXXXXXXXXXXXXXXXXXXXXXXXXXXXXXXXXXXXXXXXXXXXXXXXXXXXXXXXXXXXXXXXXXXXXXXXXXXXXXXXXXXXXXXXXXXXXXXXXXXX..  ",
"  ooXXXXXXXXXXXXXXXXXXXXXXXXXXXXXXXXXXXXXXXXXXXXXXXXXXXXXXXXXXXXXXXXXXXXXXXXXXXXXXXXXXXXXXXXXXXXXXXXXXXXXX..  ",
"  ooXXXXXXXXXXXXXXXXXXXXXXXXXXXXXXXXXXXXXXXXXXXXXXXXXXXXXXXXXXXXXXXXXXXXXXXXXXXXXXXXXXXXXXXXXXXXXXXXXXXXXX..  ",
"  XX........................................................................................................  ",
"  XX........................................................................................................  ",
"                                                                                                              ",
"                                                                                                              "
};
