/* XPM */
static char *drawcardpressed[] = {
/* columns rows colors chars-per-pixel */
"110 50 3 1 ",
"  c gray24",
". c #71757B",
"X c #E6E6E7",
/* pixels */
"                                                                                                              ",
"                                                                                                              ",
"  ..........................................................................................................  ",
"  ..........................................................................................................  ",
"  ..........................................................................................................  ",
"  ..........................................................................................................  ",
"  ..........................................................................................................  ",
"  ..........................................................................................................  ",
"  ..........................................................................................................  ",
"  ..........................................................................................................  ",
"  ..........................................................................................................  ",
"  ..........................................................................................................  ",
"  ..........................................................................................................  ",
"  ..........................................................................................................  ",
"  ..........................................................................................................  ",
"  ..........................................................................................................  ",
"  ..........................................................................................................  ",
"  .....XXXXXXX....XXXXXXX......XXXXX....XX.........XX..........XXXXX......XXXXX....XXXXXXX....XXXXXXX.......  ",
"  .....XXXXXXXX...XXXXXXXX....XXXXXXX...XX.........XX.........XXXXXXX....XXXXXXX...XXXXXXXX...XXXXXXXX......  ",
"  .....XX....XXX..XXX...XXX...XX...XX...XX.........XX........XXX...XXX...XX...XX...XXX...XXX..XX....XXX.....  ",
"  .....XX.....XX..XX.....XX..XXX...XXX..XX.........XX........XX.....XX..XXX...XXX..XX.....XX..XX.....XX.....  ",
"  .....XX.....XX..XX.....XX..XX.....XX..XX.........XX........XX.........XX.....XX..XX.....XX..XX.....XX.....  ",
"  .....XX.....XX..XX....XXX..XX.....XX..XX.........XX........XX.........XX.....XX..XX....XXX..XX.....XX.....  ",
"  .....XX.....XX..XXXXXXXX...XX.....XX..XX.........XX........XX.........XX.....XX..XXXXXXXX...XX.....XX.....  ",
"  .....XX.....XX..XXXXXXX....XX.....XX..XX.........XX........XX.........XX.....XX..XXXXXXX....XX.....XX.....  ",
"  .....XX.....XX..XX.XXX.....XXXXXXXXX..XX....X....XX........XX.........XXXXXXXXX..XX.XXX.....XX.....XX.....  ",
"  .....XX.....XX..XX..XX.....XXXXXXXXX..XX...XXX...XX........XX.........XXXXXXXXX..XX..XX.....XX.....XX.....  ",
"  .....XX.....XX..XX..XXX....XX.....XX..XX...XXX...XX........XX.........XX.....XX..XX..XXX....XX.....XX.....  ",
"  .....XX.....XX..XX...XX....XX.....XX..XX..XXXXX..XX........XX......X..XX.....XX..XX...XX....XX.....XX.....  ",
"  .....XX.....XX..XX...XXX...XX.....XX...XX.XX.XX.XX.........XX.....XX..XX.....XX..XX...XXX...XX.....XX.....  ",
"  .....XX....XXX..XX....XX...XX.....XX...XXXX...XXXX.........XXX...XXX..XX.....XX..XX....XX...XX....XXX.....  ",
"  .....XXXXXXXX...XX....XXX..XX.....XX....XXX...XXX...........XXXXXXX...XX.....XX..XX....XXX..XXXXXXXX......  ",
"  .....XXXXXXX....XX.....XX..XX.....XX....XX.....XX............XXXXX....XX.....XX..XX.....XX..XXXXXXX.......  ",
"  ..........................................................................................................  ",
"  ..........................................................................................................  ",
"  ..........................................................................................................  ",
"  ..........................................................................................................  ",
"  ..........................................................................................................  ",
"  ..........................................................................................................  ",
"  ..........................................................................................................  ",
"  ..........................................................................................................  ",
"  ..........................................................................................................  ",
"  ..........................................................................................................  ",
"  ..........................................................................................................  ",
"  ..........................................................................................................  ",
"  ..........................................................................................................  ",
"  ..........................................................................................................  ",
"  ..........................................................................................................  ",
"                                                                                                              ",
"                                                                                                              "
};
