/* XPM */
static char *bicon[] = {
/* columns rows colors chars-per-pixel */
"32 32 2 1 ",
"  c #1E1E20",
". c #A2A2A3",
/* pixels */
"                                ",
"                                ",
"  ..  ....................  ..  ",
"  ..  ....................  ..  ",
"                                ",
"                                ",
"  ..  ....................  ..  ",
"  ..  ....................  ..  ",
"  ..  ..                ..  ..  ",
"  ..  ..                ..  ..  ",
"  ..  ..                ..  ..  ",
"  ..  ..                ..  ..  ",
"  ..  ..                ..  ..  ",
"  ..  ..                ..  ..  ",
"  ..  ..                ..  ..  ",
"  ..  ..                ..  ..  ",
"  ..  ..                ..  ..  ",
"  ..  ..                ..  ..  ",
"  ..  ..                ..  ..  ",
"  ..  ..                ..  ..  ",
"  ..  ..                ..  ..  ",
"  ..  ..                ..  ..  ",
"  ..  ..                ..  ..  ",
"  ..  ..                ..  ..  ",
"  ..  ....................  ..  ",
"  ..  ....................  ..  ",
"                                ",
"                                ",
"  ..  ....................  ..  ",
"  ..  ....................  ..  ",
"                                ",
"                                "
};
