/* XPM */
static char *row4[] = {
/* columns rows colors chars-per-pixel */
"50 50 4 1 ",
"  c gray24",
". c #23860F",
"X c #47AF1E",
"o c #84F437",
/* pixels */
"                                                  ",
"                                                  ",
"  ooooooooooooooooooooooooooooooooooooooooooooXX  ",
"  ooooooooooooooooooooooooooooooooooooooooooooXX  ",
"  ooXXXXXXXXXXXXXXXXXXXXXXXXXXXXXXXXXXXXXXXXXX..  ",
"  ooXXXXXXXXXXXXXXXXXXXXXXXXXXXXXXXXXXXXXXXXXX..  ",
"  ooXXXXXXXXXXXXXXXXXXXXXXXXXXXXXXXXXXXXXXXXXX..  ",
"  ooXXXXXXXXXXXXXXXXXXXXXXXXXXXXXXXXXXXXXXXXXX..  ",
"  ooXXXXXXXXXXXXXXXXXXXXXXXXXXXXXXXXXXXXXXXXXX..  ",
"  ooXXXXXXXXXXXXXXXXXXXXXXXXXXXXXXXXXXXXXXXXXX..  ",
"  ooXXXXXXXXXXXXXXXXXXXXXXXXXXXXXXXXXXXXXXXXXX..  ",
"  ooXXXXXXXXXXXXXXXXXXXXXXXXXXXXXXXXXXXXXXXXXX..  ",
"  ooXXXXXXXXXXXXXXXXXXXXXXXXXXXXXXXXXXXXXXXXXX..  ",
"  ooXXXXXXXXXXXXXXXXXXXXXXXXXXXXXXXXXXXXXXXXXX..  ",
"  ooXXXXXXXXXXXXXXXXXXXXXXXXXXXXXXXXXXXXXXXXXX..  ",
"  ooXXXXXXXXXXXXXXXXXXXXXXXXXXXXXXXXXXXXXXXXXX..  ",
"  ooXXXXXXXXXXXXXXXXXXXXXXXXXXXXXXXXXXXXXXXXXX..  ",
"  ooXXXXXXXXXXXXXXXXXXXXXXXXXXXXXXXXXXXXXXXXXX..  ",
"  ooXXXXXXXXXXXXXXXXXXXXXXXXXXXXXXXXXXXXXXXXXX..  ",
"  ooXXXXXXXXXXXXXXXXXXXXXXXXXXXXXXXXXXXXXXXXXX..  ",
"  ooXXXXXXXXXXXXXXXXXXXXXXXXXXXXXXXXXXXXXXXXXX..  ",
"  ooXXXXXXXXXXXXXXXXXXXXXXXXXXXXXXXXXXXXXXXXXX..  ",
"  ooXXXXXXXXXXXXXXXXXXXXXXXXXXXXXXXXXXXXXXXXXX..  ",
"  ooXXXXXXXXXXXXXXXXXXXXXXXXXXXXXXXXXXXXXXXXXX..  ",
"  ooXXXXXXXXXXXXXXXXXXXXXXXXXXXXXXXXXXXXXXXXXX..  ",
"  ooXXXXXXXXXXXXXXXXXXXXXXXXXXXXXXXXXXXXXXXXXX..  ",
"  ooXXXXXXXXXXXXXXXXXXXXXXXXXXXXXXXXXXXXXXXXXX..  ",
"  ooXXXXXXXXXXXXXXXXXXXXXXXXXXXXXXXXXXXXXXXXXX..  ",
"  ooXXXXXXXXXXXXXXXXXXXXXXXXXXXXXXXXXXXXXXXXXX..  ",
"  ooXXXXXXXXXXXXXXXXXXXXXXXXXXXXXXXXXXXXXXXXXX..  ",
"  ooXXXXXXXXXXXXXXXXXXXXXXXXXXXXXXXXXXXXXXXXXX..  ",
"  ooXXXXXXXXXXXXXXXXXXXXXXXXXXXXXXXXXXXXXXXXXX..  ",
"  ooXXXXXXXXXXXXXXXXXXXXXXXXXXXXXXXXXXXXXXXXXX..  ",
"  ooXXXXXXXXXXXXXXXXXXXXXXXXXXXXXXXXXXXXXXXXXX..  ",
"  ooXXXXXXXXXXXXXXXXXXXXXXXXXXXXXXXXXXXXXXXXXX..  ",
"  ooXXXXXXXXXXXXXXXXXXXXXXXXXXXXXXXXXXXXXXXXXX..  ",
"  ooXXXXXXXXXXXXXXXXXXXXXXXXXXXXXXXXXXXXXXXXXX..  ",
"  ooXXXXXXXXXXXXXXXXXXXXXXXXXXXXXXXXXXXXXXXXXX..  ",
"  ooXXXXXXXXXXXXXXXXXXXXXXXXXXXXXXXXXXXXXXXXXX..  ",
"  ooXXXXXXXXXXXXXXXXXXXXXXXXXXXXXXXXXXXXXXXXXX..  ",
"  ooXXXXXXXXXXXXXXXXXXXXXXXXXXXXXXXXXXXXXXXXXX..  ",
"  ooXXXXXXXXXXXXXXXXXXXXXXXXXXXXXXXXXXXXXXXXXX..  ",
"  ooXXXXXXXXXXXXXXXXXXXXXXXXXXXXXXXXXXXXXXXXXX..  ",
"  ooXXXXXXXXXXXXXXXXXXXXXXXXXXXXXXXXXXXXXXXXXX..  ",
"  ooXXXXXXXXXXXXXXXXXXXXXXXXXXXXXXXXXXXXXXXXXX..  ",
"  ooXXXXXXXXXXXXXXXXXXXXXXXXXXXXXXXXXXXXXXXXXX..  ",
"  XX............................................  ",
"  XX............................................  ",
"                                                  ",
"                                                  "
};
