/* XPM */
static char *row2pressed[] = {
/* columns rows colors chars-per-pixel */
"50 50 2 1 ",
"  c gray24",
". c #CC5816",
/* pixels */
"                                                  ",
"                                                  ",
"  ..............................................  ",
"  ..............................................  ",
"  ..............................................  ",
"  ..............................................  ",
"  ..............................................  ",
"  ..............................................  ",
"  ..............................................  ",
"  ..............................................  ",
"  ..............................................  ",
"  ..............................................  ",
"  ..............................................  ",
"  ..............................................  ",
"  ..............................................  ",
"  ..............................................  ",
"  ..............................................  ",
"  ..............................................  ",
"  ..............................................  ",
"  ..............................................  ",
"  ..............................................  ",
"  ..............................................  ",
"  ..............................................  ",
"  ..............................................  ",
"  ..............................................  ",
"  ..............................................  ",
"  ..............................................  ",
"  ..............................................  ",
"  ..............................................  ",
"  ..............................................  ",
"  ..............................................  ",
"  ..............................................  ",
"  ..............................................  ",
"  ..............................................  ",
"  ..............................................  ",
"  ..............................................  ",
"  ..............................................  ",
"  ..............................................  ",
"  ..............................................  ",
"  ..............................................  ",
"  ..............................................  ",
"  ..............................................  ",
"  ..............................................  ",
"  ..............................................  ",
"  ..............................................  ",
"  ..............................................  ",
"  ..............................................  ",
"  ..............................................  ",
"                                                  ",
"                                                  "
};
