/* XPM */
static char *row3pressed[] = {
/* columns rows colors chars-per-pixel */
"50 50 2 1 ",
"  c gray24",
". c #E6C603",
/* pixels */
"                                                  ",
"                                                  ",
"  ..............................................  ",
"  ..............................................  ",
"  ..............................................  ",
"  ..............................................  ",
"  ..............................................  ",
"  ..............................................  ",
"  ..............................................  ",
"  ..............................................  ",
"  ..............................................  ",
"  ..............................................  ",
"  ..............................................  ",
"  ..............................................  ",
"  ..............................................  ",
"  ..............................................  ",
"  ..............................................  ",
"  ..............................................  ",
"  ..............................................  ",
"  ..............................................  ",
"  ..............................................  ",
"  ..............................................  ",
"  ..............................................  ",
"  ..............................................  ",
"  ..............................................  ",
"  ..............................................  ",
"  ..............................................  ",
"  ..............................................  ",
"  ..............................................  ",
"  ..............................................  ",
"  ..............................................  ",
"  ..............................................  ",
"  ..............................................  ",
"  ..............................................  ",
"  ..............................................  ",
"  ..............................................  ",
"  ..............................................  ",
"  ..............................................  ",
"  ..............................................  ",
"  ..............................................  ",
"  ..............................................  ",
"  ..............................................  ",
"  ..............................................  ",
"  ..............................................  ",
"  ..............................................  ",
"  ..............................................  ",
"  ..............................................  ",
"  ..............................................  ",
"                                                  ",
"                                                  "
};
