/* XPM */
static char *row34pressed[] = {
/* columns rows colors chars-per-pixel */
"50 110 3 1 ",
"  c gray24",
". c #3BA318",
"X c #E6C603",
/* pixels */
"                                                  ",
"                                                  ",
"  XXXXXXXXXXXXXXXXXXXXXXXXXXXXXXXXXXXXXXXXXXXXXX  ",
"  XXXXXXXXXXXXXXXXXXXXXXXXXXXXXXXXXXXXXXXXXXXXXX  ",
"  XXXXXXXXXXXXXXXXXXXXXXXXXXXXXXXXXXXXXXXXXXXXXX  ",
"  XXXXXXXXXXXXXXXXXXXXXXXXXXXXXXXXXXXXXXXXXXXXXX  ",
"  XXXXXXXXXXXXXXXXXXXXXXXXXXXXXXXXXXXXXXXXXXXXXX  ",
"  XXXXXXXXXXXXXXXXXXXXXXXXXXXXXXXXXXXXXXXXXXXXXX  ",
"  XXXXXXXXXXXXXXXXXXXXXXXXXXXXXXXXXXXXXXXXXXXXXX  ",
"  XXXXXXXXXXXXXXXXXXXXXXXXXXXXXXXXXXXXXXXXXXXXXX  ",
"  XXXXXXXXXXXXXXXXXXXXXXXXXXXXXXXXXXXXXXXXXXXXXX  ",
"  XXXXXXXXXXXXXXXXXXXXXXXXXXXXXXXXXXXXXXXXXXXXXX  ",
"  XXXXXXXXXXXXXXXXXXXXXXXXXXXXXXXXXXXXXXXXXXXXXX  ",
"  XXXXXXXXXXXXXXXXXXXXXXXXXXXXXXXXXXXXXXXXXXXXXX  ",
"  XXXXXXXXXXXXXXXXXXXXXXXXXXXXXXXXXXXXXXXXXXXXXX  ",
"  XXXXXXXXXXXXXXXXXXXXXXXXXXXXXXXXXXXXXXXXXXXXXX  ",
"  XXXXXXXXXXXXXXXXXXXXXXXXXXXXXXXXXXXXXXXXXXXXXX  ",
"  XXXXXXXXXXXXXXXXXXXXXXXXXXXXXXXXXXXXXXXXXXXXXX  ",
"  XXXXXXXXXXXXXXXXXXXXXXXXXXXXXXXXXXXXXXXXXXXXXX  ",
"  XXXXXXXXXXXXXXXXXXXXXXXXXXXXXXXXXXXXXXXXXXXXXX  ",
"  XXXXXXXXXXXXXXXXXXXXXXXXXXXXXXXXXXXXXXXXXXXXXX  ",
"  XXXXXXXXXXXXXXXXXXXXXXXXXXXXXXXXXXXXXXXXXXXXXX  ",
"  XXXXXXXXXXXXXXXXXXXXXXXXXXXXXXXXXXXXXXXXXXXXXX  ",
"  XXXXXXXXXXXXXXXXXXXXXXXXXXXXXXXXXXXXXXXXXXXXXX  ",
"  XXXXXXXXXXXXXXXXXXXXXXXXXXXXXXXXXXXXXXXXXXXXXX  ",
"  XXXXXXXXXXXXXXXXXXXXXXXXXXXXXXXXXXXXXXXXXXXXXX  ",
"  XXXX..XXXXXX..XXXXXX..XXXXXX..XXXXXX..XXXXXX..  ",
"  XXXX..XXXXXX..XXXXXX..XXXXXX..XXXXXX..XXXXXX..  ",
"  XXXXXXXXXXXXXXXXXXXXXXXXXXXXXXXXXXXXXXXXXXXXXX  ",
"  XXXXXXXXXXXXXXXXXXXXXXXXXXXXXXXXXXXXXXXXXXXXXX  ",
"  ..XXXXXX..XXXXXX..XXXXXX..XXXXXX..XXXXXX..XXXX  ",
"  ..XXXXXX..XXXXXX..XXXXXX..XXXXXX..XXXXXX..XXXX  ",
"  XXXXXXXXXXXXXXXXXXXXXXXXXXXXXXXXXXXXXXXXXXXXXX  ",
"  XXXXXXXXXXXXXXXXXXXXXXXXXXXXXXXXXXXXXXXXXXXXXX  ",
"  XXXX..XXXXXX..XXXXXX..XXXXXX..XXXXXX..XXXXXX..  ",
"  XXXX..XXXXXX..XXXXXX..XXXXXX..XXXXXX..XXXXXX..  ",
"  XXXXXXXXXXXXXXXXXXXXXXXXXXXXXXXXXXXXXXXXXXXXXX  ",
"  XXXXXXXXXXXXXXXXXXXXXXXXXXXXXXXXXXXXXXXXXXXXXX  ",
"  ..XX..XX..XX..XX..XX..XX..XX..XX..XX..XX..XX..  ",
"  ..XX..XX..XX..XX..XX..XX..XX..XX..XX..XX..XX..  ",
"  XXXXXXXXXXXXXXXXXXXXXXXXXXXXXXXXXXXXXXXXXXXXXX  ",
"  XXXXXXXXXXXXXXXXXXXXXXXXXXXXXXXXXXXXXXXXXXXXXX  ",
"  ..XX..XX..XX..XX..XX..XX..XX..XX..XX..XX..XX..  ",
"  ..XX..XX..XX..XX..XX..XX..XX..XX..XX..XX..XX..  ",
"  XXXXXX..XXXXXX..XXXXXX..XXXXXX..XXXXXX..XXXXXX  ",
"  XXXXXX..XXXXXX..XXXXXX..XXXXXX..XXXXXX..XXXXXX  ",
"  ..XX..XX..XX..XX..XX..XX..XX..XX..XX..XX..XX..  ",
"  ..XX..XX..XX..XX..XX..XX..XX..XX..XX..XX..XX..  ",
"  XX..XX..XX..XX..XX..XX..XX..XX..XX..XX..XX..XX  ",
"  XX..XX..XX..XX..XX..XX..XX..XX..XX..XX..XX..XX  ",
"  ..XX..XX..XX..XX..XX..XX..XX..XX..XX..XX..XX..  ",
"  ..XX..XX..XX..XX..XX..XX..XX..XX..XX..XX..XX..  ",
"  XX..XX..XX..XX..XX..XX..XX..XX..XX..XX..XX..XX  ",
"  XX..XX..XX..XX..XX..XX..XX..XX..XX..XX..XX..XX  ",
"  ..XX..XX..XX..XX..XX..XX..XX..XX..XX..XX..XX..  ",
"  ..XX..XX..XX..XX..XX..XX..XX..XX..XX..XX..XX..  ",
"  XX..XX..XX..XX..XX..XX..XX..XX..XX..XX..XX..XX  ",
"  XX..XX..XX..XX..XX..XX..XX..XX..XX..XX..XX..XX  ",
"  ..XX..XX..XX..XX..XX..XX..XX..XX..XX..XX..XX..  ",
"  ..XX..XX..XX..XX..XX..XX..XX..XX..XX..XX..XX..  ",
"  XX......XX......XX......XX......XX......XX....  ",
"  XX......XX......XX......XX......XX......XX....  ",
"  ..XX..XX..XX..XX..XX..XX..XX..XX..XX..XX..XX..  ",
"  ..XX..XX..XX..XX..XX..XX..XX..XX..XX..XX..XX..  ",
"  ..............................................  ",
"  ..............................................  ",
"  ..XX..XX..XX..XX..XX..XX..XX..XX..XX..XX..XX..  ",
"  ..XX..XX..XX..XX..XX..XX..XX..XX..XX..XX..XX..  ",
"  ..............................................  ",
"  ..............................................  ",
"  ..XX..XX..XX..XX..XX..XX..XX..XX..XX..XX..XX..  ",
"  ..XX..XX..XX..XX..XX..XX..XX..XX..XX..XX..XX..  ",
"  ..............................................  ",
"  ..............................................  ",
"  ..XX......XX......XX......XX......XX......XX..  ",
"  ..XX......XX......XX......XX......XX......XX..  ",
"  ..............................................  ",
"  ..............................................  ",
"  ......XX......XX......XX......XX......XX......  ",
"  ......XX......XX......XX......XX......XX......  ",
"  ..............................................  ",
"  ..............................................  ",
"  ..XX......XX......XX......XX......XX......XX..  ",
"  ..XX......XX......XX......XX......XX......XX..  ",
"  ..............................................  ",
"  ..............................................  ",
"  ..............................................  ",
"  ..............................................  ",
"  ..............................................  ",
"  ..............................................  ",
"  ..............................................  ",
"  ..............................................  ",
"  ..............................................  ",
"  ..............................................  ",
"  ..............................................  ",
"  ..............................................  ",
"  ..............................................  ",
"  ..............................................  ",
"  ..............................................  ",
"  ..............................................  ",
"  ..............................................  ",
"  ..............................................  ",
"  ..............................................  ",
"  ..............................................  ",
"  ..............................................  ",
"  ..............................................  ",
"  ..............................................  ",
"  ..............................................  ",
"                                                  ",
"                                                  "
};
