/* XPM */
static char *row12[] = {
/* columns rows colors chars-per-pixel */
"50 110 7 1 ",
"  c gray24",
". c #881A1A",
"X c #BF330E",
"o c #B03535",
"O c #D4661B",
"+ c #F46262",
"@ c #F9BE32",
/* pixels */
"                                                  ",
"                                                  ",
"  ++++++++++++++++++++++++++++++++++++++++++++oo  ",
"  ++++++++++++++++++++++++++++++++++++++++++++oo  ",
"  ++oooooooooooooooooooooooooooooooooooooooooo..  ",
"  ++oooooooooooooooooooooooooooooooooooooooooo..  ",
"  ++oooooooooooooooooooooooooooooooooooooooooo..  ",
"  ++oooooooooooooooooooooooooooooooooooooooooo..  ",
"  ++oooooooooooooooooooooooooooooooooooooooooo..  ",
"  ++oooooooooooooooooooooooooooooooooooooooooo..  ",
"  ++oooooooooooooooooooooooooooooooooooooooooo..  ",
"  ++oooooooooooooooooooooooooooooooooooooooooo..  ",
"  ++oooooooooooooooooooooooooooooooooooooooooo..  ",
"  ++oooooooooooooooooooooooooooooooooooooooooo..  ",
"  ++oooooooooooooooooooooooooooooooooooooooooo..  ",
"  ++oooooooooooooooooooooooooooooooooooooooooo..  ",
"  ++oooooooooooooooooooooooooooooooooooooooooo..  ",
"  ++oooooooooooooooooooooooooooooooooooooooooo..  ",
"  ++oooooooooooooooooooooooooooooooooooooooooo..  ",
"  ++oooooooooooooooooooooooooooooooooooooooooo..  ",
"  ++oooooooooooooooooooooooooooooooooooooooooo..  ",
"  ++oooooooooooooooooooooooooooooooooooooooooo..  ",
"  ++oooooooooooooooooooooooooooooooooooooooooo..  ",
"  ++oooooooooooooooooooooooooooooooooooooooooo..  ",
"  ++oooooooooooooooooooooooooooooooooooooooooo..  ",
"  ++oooooooooooooooooooooooooooooooooooooooooo..  ",
"  ++ooOOooooooOOooooooOOooooooOOooooooOOooooooXX  ",
"  ++ooOOooooooOOooooooOOooooooOOooooooOOooooooXX  ",
"  ++oooooooooooooooooooooooooooooooooooooooooo..  ",
"  ++oooooooooooooooooooooooooooooooooooooooooo..  ",
"  @@ooooooOOooooooOOooooooOOooooooOOooooooOOoo..  ",
"  @@ooooooOOooooooOOooooooOOooooooOOooooooOOoo..  ",
"  ++oooooooooooooooooooooooooooooooooooooooooo..  ",
"  ++oooooooooooooooooooooooooooooooooooooooooo..  ",
"  ++ooOOooooooOOooooooOOooooooOOooooooOOooooooXX  ",
"  ++ooOOooooooOOooooooOOooooooOOooooooOOooooooXX  ",
"  ++oooooooooooooooooooooooooooooooooooooooooo..  ",
"  ++oooooooooooooooooooooooooooooooooooooooooo..  ",
"  @@ooOOooOOooOOooOOooOOooOOooOOooOOooOOooOOooXX  ",
"  @@ooOOooOOooOOooOOooOOooOOooOOooOOooOOooOOooXX  ",
"  ++oooooooooooooooooooooooooooooooooooooooooo..  ",
"  ++oooooooooooooooooooooooooooooooooooooooooo..  ",
"  @@ooOOooOOooOOooOOooOOooOOooOOooOOooOOooOOooXX  ",
"  @@ooOOooOOooOOooOOooOOooOOooOOooOOooOOooOOooXX  ",
"  ++ooooOOooooooOOooooooOOooooooOOooooooOOoooo..  ",
"  ++ooooOOooooooOOooooooOOooooooOOooooooOOoooo..  ",
"  @@ooOOooOOooOOooOOooOOooOOooOOooOOooOOooOOooXX  ",
"  @@ooOOooOOooOOooOOooOOooOOooOOooOOooOOooOOooXX  ",
"  ++OOooOOooOOooOOooOOooOOooOOooOOooOOooOOooOO..  ",
"  ++OOooOOooOOooOOooOOooOOooOOooOOooOOooOOooOO..  ",
"  @@ooOOooOOooOOooOOooOOooOOooOOooOOooOOooOOooXX  ",
"  @@ooOOooOOooOOooOOooOOooOOooOOooOOooOOooOOooXX  ",
"  ++OOooOOooOOooOOooOOooOOooOOooOOooOOooOOooOO..  ",
"  ++OOooOOooOOooOOooOOooOOooOOooOOooOOooOOooOO..  ",
"  @@ooOOooOOooOOooOOooOOooOOooOOooOOooOOooOOooXX  ",
"  @@ooOOooOOooOOooOOooOOooOOooOOooOOooOOooOOooXX  ",
"  ++OOooOOooOOooOOooOOooOOooOOooOOooOOooOOooOO..  ",
"  ++OOooOOooOOooOOooOOooOOooOOooOOooOOooOOooOO..  ",
"  @@ooOOooOOooOOooOOooOOooOOooOOooOOooOOooOOooXX  ",
"  @@ooOOooOOooOOooOOooOOooOOooOOooOOooOOooOOooXX  ",
"  ++OOOOOOooOOOOOOooOOOOOOooOOOOOOooOOOOOOooOOXX  ",
"  ++OOOOOOooOOOOOOooOOOOOOooOOOOOOooOOOOOOooOOXX  ",
"  @@ooOOooOOooOOooOOooOOooOOooOOooOOooOOooOOooXX  ",
"  @@ooOOooOOooOOooOOooOOooOOooOOooOOooOOooOOooXX  ",
"  @@OOOOOOOOOOOOOOOOOOOOOOOOOOOOOOOOOOOOOOOOOOXX  ",
"  @@OOOOOOOOOOOOOOOOOOOOOOOOOOOOOOOOOOOOOOOOOOXX  ",
"  @@ooOOooOOooOOooOOooOOooOOooOOooOOooOOooOOooXX  ",
"  @@ooOOooOOooOOooOOooOOooOOooOOooOOooOOooOOooXX  ",
"  @@OOOOOOOOOOOOOOOOOOOOOOOOOOOOOOOOOOOOOOOOOOXX  ",
"  @@OOOOOOOOOOOOOOOOOOOOOOOOOOOOOOOOOOOOOOOOOOXX  ",
"  @@ooOOooOOooOOooOOooOOooOOooOOooOOooOOooOOooXX  ",
"  @@ooOOooOOooOOooOOooOOooOOooOOooOOooOOooOOooXX  ",
"  @@OOOOOOOOOOOOOOOOOOOOOOOOOOOOOOOOOOOOOOOOOOXX  ",
"  @@OOOOOOOOOOOOOOOOOOOOOOOOOOOOOOOOOOOOOOOOOOXX  ",
"  @@ooOOOOOOooOOOOOOooOOOOOOooOOOOOOooOOOOOOooXX  ",
"  @@ooOOOOOOooOOOOOOooOOOOOOooOOOOOOooOOOOOOooXX  ",
"  @@OOOOOOOOOOOOOOOOOOOOOOOOOOOOOOOOOOOOOOOOOOXX  ",
"  @@OOOOOOOOOOOOOOOOOOOOOOOOOOOOOOOOOOOOOOOOOOXX  ",
"  @@OOOOooOOOOOOooOOOOOOooOOOOOOooOOOOOOooOOOOXX  ",
"  @@OOOOooOOOOOOooOOOOOOooOOOOOOooOOOOOOooOOOOXX  ",
"  @@OOOOOOOOOOOOOOOOOOOOOOOOOOOOOOOOOOOOOOOOOOXX  ",
"  @@OOOOOOOOOOOOOOOOOOOOOOOOOOOOOOOOOOOOOOOOOOXX  ",
"  @@ooOOOOOOooOOOOOOooOOOOOOooOOOOOOooOOOOOOooXX  ",
"  @@ooOOOOOOooOOOOOOooOOOOOOooOOOOOOooOOOOOOooXX  ",
"  @@OOOOOOOOOOOOOOOOOOOOOOOOOOOOOOOOOOOOOOOOOOXX  ",
"  @@OOOOOOOOOOOOOOOOOOOOOOOOOOOOOOOOOOOOOOOOOOXX  ",
"  @@OOOOOOOOOOOOOOOOOOOOOOOOOOOOOOOOOOOOOOOOOOXX  ",
"  @@OOOOOOOOOOOOOOOOOOOOOOOOOOOOOOOOOOOOOOOOOOXX  ",
"  @@OOOOOOOOOOOOOOOOOOOOOOOOOOOOOOOOOOOOOOOOOOXX  ",
"  @@OOOOOOOOOOOOOOOOOOOOOOOOOOOOOOOOOOOOOOOOOOXX  ",
"  @@OOOOOOOOOOOOOOOOOOOOOOOOOOOOOOOOOOOOOOOOOOXX  ",
"  @@OOOOOOOOOOOOOOOOOOOOOOOOOOOOOOOOOOOOOOOOOOXX  ",
"  @@OOOOOOOOOOOOOOOOOOOOOOOOOOOOOOOOOOOOOOOOOOXX  ",
"  @@OOOOOOOOOOOOOOOOOOOOOOOOOOOOOOOOOOOOOOOOOOXX  ",
"  @@OOOOOOOOOOOOOOOOOOOOOOOOOOOOOOOOOOOOOOOOOOXX  ",
"  @@OOOOOOOOOOOOOOOOOOOOOOOOOOOOOOOOOOOOOOOOOOXX  ",
"  @@OOOOOOOOOOOOOOOOOOOOOOOOOOOOOOOOOOOOOOOOOOXX  ",
"  @@OOOOOOOOOOOOOOOOOOOOOOOOOOOOOOOOOOOOOOOOOOXX  ",
"  @@OOOOOOOOOOOOOOOOOOOOOOOOOOOOOOOOOOOOOOOOOOXX  ",
"  @@OOOOOOOOOOOOOOOOOOOOOOOOOOOOOOOOOOOOOOOOOOXX  ",
"  @@OOOOOOOOOOOOOOOOOOOOOOOOOOOOOOOOOOOOOOOOOOXX  ",
"  @@OOOOOOOOOOOOOOOOOOOOOOOOOOOOOOOOOOOOOOOOOOXX  ",
"  @@OOOOOOOOOOOOOOOOOOOOOOOOOOOOOOOOOOOOOOOOOOXX  ",
"  @@OOOOOOOOOOOOOOOOOOOOOOOOOOOOOOOOOOOOOOOOOOXX  ",
"  @@OOOOOOOOOOOOOOOOOOOOOOOOOOOOOOOOOOOOOOOOOOXX  ",
"  @@OOOOOOOOOOOOOOOOOOOOOOOOOOOOOOOOOOOOOOOOOOXX  ",
"  OOXXXXXXXXXXXXXXXXXXXXXXXXXXXXXXXXXXXXXXXXXXXX  ",
"  OOXXXXXXXXXXXXXXXXXXXXXXXXXXXXXXXXXXXXXXXXXXXX  ",
"                                                  ",
"                                                  "
};
