/* XPM */
static char *row34[] = {
/* columns rows colors chars-per-pixel */
"50 110 7 1 ",
"  c gray24",
". c #23860F",
"X c #47AF1E",
"o c #E0B702",
"O c #84F437",
"+ c #EACF03",
"@ c #FCF805",
/* pixels */
"                                                  ",
"                                                  ",
"  @@@@@@@@@@@@@@@@@@@@@@@@@@@@@@@@@@@@@@@@@@@@++  ",
"  @@@@@@@@@@@@@@@@@@@@@@@@@@@@@@@@@@@@@@@@@@@@++  ",
"  @@++++++++++++++++++++++++++++++++++++++++++oo  ",
"  @@++++++++++++++++++++++++++++++++++++++++++oo  ",
"  @@++++++++++++++++++++++++++++++++++++++++++oo  ",
"  @@++++++++++++++++++++++++++++++++++++++++++oo  ",
"  @@++++++++++++++++++++++++++++++++++++++++++oo  ",
"  @@++++++++++++++++++++++++++++++++++++++++++oo  ",
"  @@++++++++++++++++++++++++++++++++++++++++++oo  ",
"  @@++++++++++++++++++++++++++++++++++++++++++oo  ",
"  @@++++++++++++++++++++++++++++++++++++++++++oo  ",
"  @@++++++++++++++++++++++++++++++++++++++++++oo  ",
"  @@++++++++++++++++++++++++++++++++++++++++++oo  ",
"  @@++++++++++++++++++++++++++++++++++++++++++oo  ",
"  @@++++++++++++++++++++++++++++++++++++++++++oo  ",
"  @@++++++++++++++++++++++++++++++++++++++++++oo  ",
"  @@++++++++++++++++++++++++++++++++++++++++++oo  ",
"  @@++++++++++++++++++++++++++++++++++++++++++oo  ",
"  @@++++++++++++++++++++++++++++++++++++++++++oo  ",
"  @@++++++++++++++++++++++++++++++++++++++++++oo  ",
"  @@++++++++++++++++++++++++++++++++++++++++++oo  ",
"  @@++++++++++++++++++++++++++++++++++++++++++oo  ",
"  @@++++++++++++++++++++++++++++++++++++++++++oo  ",
"  @@++++++++++++++++++++++++++++++++++++++++++oo  ",
"  @@++XX++++++XX++++++XX++++++XX++++++XX++++++..  ",
"  @@++XX++++++XX++++++XX++++++XX++++++XX++++++..  ",
"  @@++++++++++++++++++++++++++++++++++++++++++oo  ",
"  @@++++++++++++++++++++++++++++++++++++++++++oo  ",
"  OO++++++XX++++++XX++++++XX++++++XX++++++XX++oo  ",
"  OO++++++XX++++++XX++++++XX++++++XX++++++XX++oo  ",
"  @@++++++++++++++++++++++++++++++++++++++++++oo  ",
"  @@++++++++++++++++++++++++++++++++++++++++++oo  ",
"  @@++XX++++++XX++++++XX++++++XX++++++XX++++++..  ",
"  @@++XX++++++XX++++++XX++++++XX++++++XX++++++..  ",
"  @@++++++++++++++++++++++++++++++++++++++++++oo  ",
"  @@++++++++++++++++++++++++++++++++++++++++++oo  ",
"  OO++XX++XX++XX++XX++XX++XX++XX++XX++XX++XX++..  ",
"  OO++XX++XX++XX++XX++XX++XX++XX++XX++XX++XX++..  ",
"  @@++++++++++++++++++++++++++++++++++++++++++oo  ",
"  @@++++++++++++++++++++++++++++++++++++++++++oo  ",
"  OO++XX++XX++XX++XX++XX++XX++XX++XX++XX++XX++..  ",
"  OO++XX++XX++XX++XX++XX++XX++XX++XX++XX++XX++..  ",
"  @@++++XX++++++XX++++++XX++++++XX++++++XX++++oo  ",
"  @@++++XX++++++XX++++++XX++++++XX++++++XX++++oo  ",
"  OO++XX++XX++XX++XX++XX++XX++XX++XX++XX++XX++..  ",
"  OO++XX++XX++XX++XX++XX++XX++XX++XX++XX++XX++..  ",
"  @@XX++XX++XX++XX++XX++XX++XX++XX++XX++XX++XXoo  ",
"  @@XX++XX++XX++XX++XX++XX++XX++XX++XX++XX++XXoo  ",
"  OO++XX++XX++XX++XX++XX++XX++XX++XX++XX++XX++..  ",
"  OO++XX++XX++XX++XX++XX++XX++XX++XX++XX++XX++..  ",
"  @@XX++XX++XX++XX++XX++XX++XX++XX++XX++XX++XXoo  ",
"  @@XX++XX++XX++XX++XX++XX++XX++XX++XX++XX++XXoo  ",
"  OO++XX++XX++XX++XX++XX++XX++XX++XX++XX++XX++..  ",
"  OO++XX++XX++XX++XX++XX++XX++XX++XX++XX++XX++..  ",
"  @@XX++XX++XX++XX++XX++XX++XX++XX++XX++XX++XXoo  ",
"  @@XX++XX++XX++XX++XX++XX++XX++XX++XX++XX++XXoo  ",
"  OO++XX++XX++XX++XX++XX++XX++XX++XX++XX++XX++..  ",
"  OO++XX++XX++XX++XX++XX++XX++XX++XX++XX++XX++..  ",
"  @@XXXXXX++XXXXXX++XXXXXX++XXXXXX++XXXXXX++XX..  ",
"  @@XXXXXX++XXXXXX++XXXXXX++XXXXXX++XXXXXX++XX..  ",
"  OO++XX++XX++XX++XX++XX++XX++XX++XX++XX++XX++..  ",
"  OO++XX++XX++XX++XX++XX++XX++XX++XX++XX++XX++..  ",
"  OOXXXXXXXXXXXXXXXXXXXXXXXXXXXXXXXXXXXXXXXXXX..  ",
"  OOXXXXXXXXXXXXXXXXXXXXXXXXXXXXXXXXXXXXXXXXXX..  ",
"  OO++XX++XX++XX++XX++XX++XX++XX++XX++XX++XX++..  ",
"  OO++XX++XX++XX++XX++XX++XX++XX++XX++XX++XX++..  ",
"  OOXXXXXXXXXXXXXXXXXXXXXXXXXXXXXXXXXXXXXXXXXX..  ",
"  OOXXXXXXXXXXXXXXXXXXXXXXXXXXXXXXXXXXXXXXXXXX..  ",
"  OO++XX++XX++XX++XX++XX++XX++XX++XX++XX++XX++..  ",
"  OO++XX++XX++XX++XX++XX++XX++XX++XX++XX++XX++..  ",
"  OOXXXXXXXXXXXXXXXXXXXXXXXXXXXXXXXXXXXXXXXXXX..  ",
"  OOXXXXXXXXXXXXXXXXXXXXXXXXXXXXXXXXXXXXXXXXXX..  ",
"  OO++XXXXXX++XXXXXX++XXXXXX++XXXXXX++XXXXXX++..  ",
"  OO++XXXXXX++XXXXXX++XXXXXX++XXXXXX++XXXXXX++..  ",
"  OOXXXXXXXXXXXXXXXXXXXXXXXXXXXXXXXXXXXXXXXXXX..  ",
"  OOXXXXXXXXXXXXXXXXXXXXXXXXXXXXXXXXXXXXXXXXXX..  ",
"  OOXXXX++XXXXXX++XXXXXX++XXXXXX++XXXXXX++XXXX..  ",
"  OOXXXX++XXXXXX++XXXXXX++XXXXXX++XXXXXX++XXXX..  ",
"  OOXXXXXXXXXXXXXXXXXXXXXXXXXXXXXXXXXXXXXXXXXX..  ",
"  OOXXXXXXXXXXXXXXXXXXXXXXXXXXXXXXXXXXXXXXXXXX..  ",
"  OO++XXXXXX++XXXXXX++XXXXXX++XXXXXX++XXXXXX++..  ",
"  OO++XXXXXX++XXXXXX++XXXXXX++XXXXXX++XXXXXX++..  ",
"  OOXXXXXXXXXXXXXXXXXXXXXXXXXXXXXXXXXXXXXXXXXX..  ",
"  OOXXXXXXXXXXXXXXXXXXXXXXXXXXXXXXXXXXXXXXXXXX..  ",
"  OOXXXXXXXXXXXXXXXXXXXXXXXXXXXXXXXXXXXXXXXXXX..  ",
"  OOXXXXXXXXXXXXXXXXXXXXXXXXXXXXXXXXXXXXXXXXXX..  ",
"  OOXXXXXXXXXXXXXXXXXXXXXXXXXXXXXXXXXXXXXXXXXX..  ",
"  OOXXXXXXXXXXXXXXXXXXXXXXXXXXXXXXXXXXXXXXXXXX..  ",
"  OOXXXXXXXXXXXXXXXXXXXXXXXXXXXXXXXXXXXXXXXXXX..  ",
"  OOXXXXXXXXXXXXXXXXXXXXXXXXXXXXXXXXXXXXXXXXXX..  ",
"  OOXXXXXXXXXXXXXXXXXXXXXXXXXXXXXXXXXXXXXXXXXX..  ",
"  OOXXXXXXXXXXXXXXXXXXXXXXXXXXXXXXXXXXXXXXXXXX..  ",
"  OOXXXXXXXXXXXXXXXXXXXXXXXXXXXXXXXXXXXXXXXXXX..  ",
"  OOXXXXXXXXXXXXXXXXXXXXXXXXXXXXXXXXXXXXXXXXXX..  ",
"  OOXXXXXXXXXXXXXXXXXXXXXXXXXXXXXXXXXXXXXXXXXX..  ",
"  OOXXXXXXXXXXXXXXXXXXXXXXXXXXXXXXXXXXXXXXXXXX..  ",
"  OOXXXXXXXXXXXXXXXXXXXXXXXXXXXXXXXXXXXXXXXXXX..  ",
"  OOXXXXXXXXXXXXXXXXXXXXXXXXXXXXXXXXXXXXXXXXXX..  ",
"  OOXXXXXXXXXXXXXXXXXXXXXXXXXXXXXXXXXXXXXXXXXX..  ",
"  OOXXXXXXXXXXXXXXXXXXXXXXXXXXXXXXXXXXXXXXXXXX..  ",
"  OOXXXXXXXXXXXXXXXXXXXXXXXXXXXXXXXXXXXXXXXXXX..  ",
"  OOXXXXXXXXXXXXXXXXXXXXXXXXXXXXXXXXXXXXXXXXXX..  ",
"  OOXXXXXXXXXXXXXXXXXXXXXXXXXXXXXXXXXXXXXXXXXX..  ",
"  OOXXXXXXXXXXXXXXXXXXXXXXXXXXXXXXXXXXXXXXXXXX..  ",
"  XX............................................  ",
"  XX............................................  ",
"                                                  ",
"                                                  "
};
