/* XPM */
static char *row56[] = {
/* columns rows colors chars-per-pixel */
"50 110 7 1 ",
"  c gray24",
". c #57219C",
"X c #2A3DC8",
"o c #567CDA",
"O c #8F42BD",
"+ c #EF7AF5",
"@ c #A0E6F9",
/* pixels */
"                                                  ",
"                                                  ",
"  @@@@@@@@@@@@@@@@@@@@@@@@@@@@@@@@@@@@@@@@@@@@oo  ",
"  @@@@@@@@@@@@@@@@@@@@@@@@@@@@@@@@@@@@@@@@@@@@oo  ",
"  @@ooooooooooooooooooooooooooooooooooooooooooXX  ",
"  @@ooooooooooooooooooooooooooooooooooooooooooXX  ",
"  @@ooooooooooooooooooooooooooooooooooooooooooXX  ",
"  @@ooooooooooooooooooooooooooooooooooooooooooXX  ",
"  @@ooooooooooooooooooooooooooooooooooooooooooXX  ",
"  @@ooooooooooooooooooooooooooooooooooooooooooXX  ",
"  @@ooooooooooooooooooooooooooooooooooooooooooXX  ",
"  @@ooooooooooooooooooooooooooooooooooooooooooXX  ",
"  @@ooooooooooooooooooooooooooooooooooooooooooXX  ",
"  @@ooooooooooooooooooooooooooooooooooooooooooXX  ",
"  @@ooooooooooooooooooooooooooooooooooooooooooXX  ",
"  @@ooooooooooooooooooooooooooooooooooooooooooXX  ",
"  @@ooooooooooooooooooooooooooooooooooooooooooXX  ",
"  @@ooooooooooooooooooooooooooooooooooooooooooXX  ",
"  @@ooooooooooooooooooooooooooooooooooooooooooXX  ",
"  @@ooooooooooooooooooooooooooooooooooooooooooXX  ",
"  @@ooooooooooooooooooooooooooooooooooooooooooXX  ",
"  @@ooooooooooooooooooooooooooooooooooooooooooXX  ",
"  @@ooooooooooooooooooooooooooooooooooooooooooXX  ",
"  @@ooooooooooooooooooooooooooooooooooooooooooXX  ",
"  @@ooooooooooooooooooooooooooooooooooooooooooXX  ",
"  @@ooooooooooooooooooooooooooooooooooooooooooXX  ",
"  @@ooOOooooooOOooooooOOooooooOOooooooOOoooooo..  ",
"  @@ooOOooooooOOooooooOOooooooOOooooooOOoooooo..  ",
"  @@ooooooooooooooooooooooooooooooooooooooooooXX  ",
"  @@ooooooooooooooooooooooooooooooooooooooooooXX  ",
"  ++ooooooOOooooooOOooooooOOooooooOOooooooOOooXX  ",
"  ++ooooooOOooooooOOooooooOOooooooOOooooooOOooXX  ",
"  @@ooooooooooooooooooooooooooooooooooooooooooXX  ",
"  @@ooooooooooooooooooooooooooooooooooooooooooXX  ",
"  @@ooOOooooooOOooooooOOooooooOOooooooOOoooooo..  ",
"  @@ooOOooooooOOooooooOOooooooOOooooooOOoooooo..  ",
"  @@ooooooooooooooooooooooooooooooooooooooooooXX  ",
"  @@ooooooooooooooooooooooooooooooooooooooooooXX  ",
"  ++ooOOooOOooOOooOOooOOooOOooOOooOOooOOooOOoo..  ",
"  ++ooOOooOOooOOooOOooOOooOOooOOooOOooOOooOOoo..  ",
"  @@ooooooooooooooooooooooooooooooooooooooooooXX  ",
"  @@ooooooooooooooooooooooooooooooooooooooooooXX  ",
"  ++ooOOooOOooOOooOOooOOooOOooOOooOOooOOooOOoo..  ",
"  ++ooOOooOOooOOooOOooOOooOOooOOooOOooOOooOOoo..  ",
"  @@ooooOOooooooOOooooooOOooooooOOooooooOOooooXX  ",
"  @@ooooOOooooooOOooooooOOooooooOOooooooOOooooXX  ",
"  ++ooOOooOOooOOooOOooOOooOOooOOooOOooOOooOOoo..  ",
"  ++ooOOooOOooOOooOOooOOooOOooOOooOOooOOooOOoo..  ",
"  @@OOooOOooOOooOOooOOooOOooOOooOOooOOooOOooOOXX  ",
"  @@OOooOOooOOooOOooOOooOOooOOooOOooOOooOOooOOXX  ",
"  ++ooOOooOOooOOooOOooOOooOOooOOooOOooOOooOOoo..  ",
"  ++ooOOooOOooOOooOOooOOooOOooOOooOOooOOooOOoo..  ",
"  @@OOooOOooOOooOOooOOooOOooOOooOOooOOooOOooOOXX  ",
"  @@OOooOOooOOooOOooOOooOOooOOooOOooOOooOOooOOXX  ",
"  ++ooOOooOOooOOooOOooOOooOOooOOooOOooOOooOOoo..  ",
"  ++ooOOooOOooOOooOOooOOooOOooOOooOOooOOooOOoo..  ",
"  @@OOooOOooOOooOOooOOooOOooOOooOOooOOooOOooOOXX  ",
"  @@OOooOOooOOooOOooOOooOOooOOooOOooOOooOOooOOXX  ",
"  ++ooOOooOOooOOooOOooOOooOOooOOooOOooOOooOOoo..  ",
"  ++ooOOooOOooOOooOOooOOooOOooOOooOOooOOooOOoo..  ",
"  @@OOOOOOooOOOOOOooOOOOOOooOOOOOOooOOOOOOooOO..  ",
"  @@OOOOOOooOOOOOOooOOOOOOooOOOOOOooOOOOOOooOO..  ",
"  ++ooOOooOOooOOooOOooOOooOOooOOooOOooOOooOOoo..  ",
"  ++ooOOooOOooOOooOOooOOooOOooOOooOOooOOooOOoo..  ",
"  ++OOOOOOOOOOOOOOOOOOOOOOOOOOOOOOOOOOOOOOOOOO..  ",
"  ++OOOOOOOOOOOOOOOOOOOOOOOOOOOOOOOOOOOOOOOOOO..  ",
"  ++ooOOooOOooOOooOOooOOooOOooOOooOOooOOooOOoo..  ",
"  ++ooOOooOOooOOooOOooOOooOOooOOooOOooOOooOOoo..  ",
"  ++OOOOOOOOOOOOOOOOOOOOOOOOOOOOOOOOOOOOOOOOOO..  ",
"  ++OOOOOOOOOOOOOOOOOOOOOOOOOOOOOOOOOOOOOOOOOO..  ",
"  ++ooOOooOOooOOooOOooOOooOOooOOooOOooOOooOOoo..  ",
"  ++ooOOooOOooOOooOOooOOooOOooOOooOOooOOooOOoo..  ",
"  ++OOOOOOOOOOOOOOOOOOOOOOOOOOOOOOOOOOOOOOOOOO..  ",
"  ++OOOOOOOOOOOOOOOOOOOOOOOOOOOOOOOOOOOOOOOOOO..  ",
"  ++ooOOOOOOooOOOOOOooOOOOOOooOOOOOOooOOOOOOoo..  ",
"  ++ooOOOOOOooOOOOOOooOOOOOOooOOOOOOooOOOOOOoo..  ",
"  ++OOOOOOOOOOOOOOOOOOOOOOOOOOOOOOOOOOOOOOOOOO..  ",
"  ++OOOOOOOOOOOOOOOOOOOOOOOOOOOOOOOOOOOOOOOOOO..  ",
"  ++OOOOooOOOOOOooOOOOOOooOOOOOOooOOOOOOooOOOO..  ",
"  ++OOOOooOOOOOOooOOOOOOooOOOOOOooOOOOOOooOOOO..  ",
"  ++OOOOOOOOOOOOOOOOOOOOOOOOOOOOOOOOOOOOOOOOOO..  ",
"  ++OOOOOOOOOOOOOOOOOOOOOOOOOOOOOOOOOOOOOOOOOO..  ",
"  ++ooOOOOOOooOOOOOOooOOOOOOooOOOOOOooOOOOOOoo..  ",
"  ++ooOOOOOOooOOOOOOooOOOOOOooOOOOOOooOOOOOOoo..  ",
"  ++OOOOOOOOOOOOOOOOOOOOOOOOOOOOOOOOOOOOOOOOOO..  ",
"  ++OOOOOOOOOOOOOOOOOOOOOOOOOOOOOOOOOOOOOOOOOO..  ",
"  ++OOOOOOOOOOOOOOOOOOOOOOOOOOOOOOOOOOOOOOOOOO..  ",
"  ++OOOOOOOOOOOOOOOOOOOOOOOOOOOOOOOOOOOOOOOOOO..  ",
"  ++OOOOOOOOOOOOOOOOOOOOOOOOOOOOOOOOOOOOOOOOOO..  ",
"  ++OOOOOOOOOOOOOOOOOOOOOOOOOOOOOOOOOOOOOOOOOO..  ",
"  ++OOOOOOOOOOOOOOOOOOOOOOOOOOOOOOOOOOOOOOOOOO..  ",
"  ++OOOOOOOOOOOOOOOOOOOOOOOOOOOOOOOOOOOOOOOOOO..  ",
"  ++OOOOOOOOOOOOOOOOOOOOOOOOOOOOOOOOOOOOOOOOOO..  ",
"  ++OOOOOOOOOOOOOOOOOOOOOOOOOOOOOOOOOOOOOOOOOO..  ",
"  ++OOOOOOOOOOOOOOOOOOOOOOOOOOOOOOOOOOOOOOOOOO..  ",
"  ++OOOOOOOOOOOOOOOOOOOOOOOOOOOOOOOOOOOOOOOOOO..  ",
"  ++OOOOOOOOOOOOOOOOOOOOOOOOOOOOOOOOOOOOOOOOOO..  ",
"  ++OOOOOOOOOOOOOOOOOOOOOOOOOOOOOOOOOOOOOOOOOO..  ",
"  ++OOOOOOOOOOOOOOOOOOOOOOOOOOOOOOOOOOOOOOOOOO..  ",
"  ++OOOOOOOOOOOOOOOOOOOOOOOOOOOOOOOOOOOOOOOOOO..  ",
"  ++OOOOOOOOOOOOOOOOOOOOOOOOOOOOOOOOOOOOOOOOOO..  ",
"  ++OOOOOOOOOOOOOOOOOOOOOOOOOOOOOOOOOOOOOOOOOO..  ",
"  ++OOOOOOOOOOOOOOOOOOOOOOOOOOOOOOOOOOOOOOOOOO..  ",
"  ++OOOOOOOOOOOOOOOOOOOOOOOOOOOOOOOOOOOOOOOOOO..  ",
"  ++OOOOOOOOOOOOOOOOOOOOOOOOOOOOOOOOOOOOOOOOOO..  ",
"  ++OOOOOOOOOOOOOOOOOOOOOOOOOOOOOOOOOOOOOOOOOO..  ",
"  OO............................................  ",
"  OO............................................  ",
"                                                  ",
"                                                  "
};
