/* XPM */
static char *row6pressed[] = {
/* columns rows colors chars-per-pixel */
"50 50 2 1 ",
"  c gray24",
". c #8137B2",
/* pixels */
"                                                  ",
"                                                  ",
"  ..............................................  ",
"  ..............................................  ",
"  ..............................................  ",
"  ..............................................  ",
"  ..............................................  ",
"  ..............................................  ",
"  ..............................................  ",
"  ..............................................  ",
"  ..............................................  ",
"  ..............................................  ",
"  ..............................................  ",
"  ..............................................  ",
"  ..............................................  ",
"  ..............................................  ",
"  ..............................................  ",
"  ..............................................  ",
"  ..............................................  ",
"  ..............................................  ",
"  ..............................................  ",
"  ..............................................  ",
"  ..............................................  ",
"  ..............................................  ",
"  ..............................................  ",
"  ..............................................  ",
"  ..............................................  ",
"  ..............................................  ",
"  ..............................................  ",
"  ..............................................  ",
"  ..............................................  ",
"  ..............................................  ",
"  ..............................................  ",
"  ..............................................  ",
"  ..............................................  ",
"  ..............................................  ",
"  ..............................................  ",
"  ..............................................  ",
"  ..............................................  ",
"  ..............................................  ",
"  ..............................................  ",
"  ..............................................  ",
"  ..............................................  ",
"  ..............................................  ",
"  ..............................................  ",
"  ..............................................  ",
"  ..............................................  ",
"  ..............................................  ",
"                                                  ",
"                                                  "
};
