/* XPM */
static char *row12pressed[] = {
/* columns rows colors chars-per-pixel */
"50 110 3 1 ",
"  c gray24",
". c #A42C2C",
"X c #CC5816",
/* pixels */
"                                                  ",
"                                                  ",
"  ..............................................  ",
"  ..............................................  ",
"  ..............................................  ",
"  ..............................................  ",
"  ..............................................  ",
"  ..............................................  ",
"  ..............................................  ",
"  ..............................................  ",
"  ..............................................  ",
"  ..............................................  ",
"  ..............................................  ",
"  ..............................................  ",
"  ..............................................  ",
"  ..............................................  ",
"  ..............................................  ",
"  ..............................................  ",
"  ..............................................  ",
"  ..............................................  ",
"  ..............................................  ",
"  ..............................................  ",
"  ..............................................  ",
"  ..............................................  ",
"  ..............................................  ",
"  ..............................................  ",
"  ....XX......XX......XX......XX......XX......XX  ",
"  ....XX......XX......XX......XX......XX......XX  ",
"  ..............................................  ",
"  ..............................................  ",
"  XX......XX......XX......XX......XX......XX....  ",
"  XX......XX......XX......XX......XX......XX....  ",
"  ..............................................  ",
"  ..............................................  ",
"  ....XX......XX......XX......XX......XX......XX  ",
"  ....XX......XX......XX......XX......XX......XX  ",
"  ..............................................  ",
"  ..............................................  ",
"  XX..XX..XX..XX..XX..XX..XX..XX..XX..XX..XX..XX  ",
"  XX..XX..XX..XX..XX..XX..XX..XX..XX..XX..XX..XX  ",
"  ..............................................  ",
"  ..............................................  ",
"  XX..XX..XX..XX..XX..XX..XX..XX..XX..XX..XX..XX  ",
"  XX..XX..XX..XX..XX..XX..XX..XX..XX..XX..XX..XX  ",
"  ......XX......XX......XX......XX......XX......  ",
"  ......XX......XX......XX......XX......XX......  ",
"  XX..XX..XX..XX..XX..XX..XX..XX..XX..XX..XX..XX  ",
"  XX..XX..XX..XX..XX..XX..XX..XX..XX..XX..XX..XX  ",
"  ..XX..XX..XX..XX..XX..XX..XX..XX..XX..XX..XX..  ",
"  ..XX..XX..XX..XX..XX..XX..XX..XX..XX..XX..XX..  ",
"  XX..XX..XX..XX..XX..XX..XX..XX..XX..XX..XX..XX  ",
"  XX..XX..XX..XX..XX..XX..XX..XX..XX..XX..XX..XX  ",
"  ..XX..XX..XX..XX..XX..XX..XX..XX..XX..XX..XX..  ",
"  ..XX..XX..XX..XX..XX..XX..XX..XX..XX..XX..XX..  ",
"  XX..XX..XX..XX..XX..XX..XX..XX..XX..XX..XX..XX  ",
"  XX..XX..XX..XX..XX..XX..XX..XX..XX..XX..XX..XX  ",
"  ..XX..XX..XX..XX..XX..XX..XX..XX..XX..XX..XX..  ",
"  ..XX..XX..XX..XX..XX..XX..XX..XX..XX..XX..XX..  ",
"  XX..XX..XX..XX..XX..XX..XX..XX..XX..XX..XX..XX  ",
"  XX..XX..XX..XX..XX..XX..XX..XX..XX..XX..XX..XX  ",
"  ..XXXXXX..XXXXXX..XXXXXX..XXXXXX..XXXXXX..XXXX  ",
"  ..XXXXXX..XXXXXX..XXXXXX..XXXXXX..XXXXXX..XXXX  ",
"  XX..XX..XX..XX..XX..XX..XX..XX..XX..XX..XX..XX  ",
"  XX..XX..XX..XX..XX..XX..XX..XX..XX..XX..XX..XX  ",
"  XXXXXXXXXXXXXXXXXXXXXXXXXXXXXXXXXXXXXXXXXXXXXX  ",
"  XXXXXXXXXXXXXXXXXXXXXXXXXXXXXXXXXXXXXXXXXXXXXX  ",
"  XX..XX..XX..XX..XX..XX..XX..XX..XX..XX..XX..XX  ",
"  XX..XX..XX..XX..XX..XX..XX..XX..XX..XX..XX..XX  ",
"  XXXXXXXXXXXXXXXXXXXXXXXXXXXXXXXXXXXXXXXXXXXXXX  ",
"  XXXXXXXXXXXXXXXXXXXXXXXXXXXXXXXXXXXXXXXXXXXXXX  ",
"  XX..XX..XX..XX..XX..XX..XX..XX..XX..XX..XX..XX  ",
"  XX..XX..XX..XX..XX..XX..XX..XX..XX..XX..XX..XX  ",
"  XXXXXXXXXXXXXXXXXXXXXXXXXXXXXXXXXXXXXXXXXXXXXX  ",
"  XXXXXXXXXXXXXXXXXXXXXXXXXXXXXXXXXXXXXXXXXXXXXX  ",
"  XX..XXXXXX..XXXXXX..XXXXXX..XXXXXX..XXXXXX..XX  ",
"  XX..XXXXXX..XXXXXX..XXXXXX..XXXXXX..XXXXXX..XX  ",
"  XXXXXXXXXXXXXXXXXXXXXXXXXXXXXXXXXXXXXXXXXXXXXX  ",
"  XXXXXXXXXXXXXXXXXXXXXXXXXXXXXXXXXXXXXXXXXXXXXX  ",
"  XXXXXX..XXXXXX..XXXXXX..XXXXXX..XXXXXX..XXXXXX  ",
"  XXXXXX..XXXXXX..XXXXXX..XXXXXX..XXXXXX..XXXXXX  ",
"  XXXXXXXXXXXXXXXXXXXXXXXXXXXXXXXXXXXXXXXXXXXXXX  ",
"  XXXXXXXXXXXXXXXXXXXXXXXXXXXXXXXXXXXXXXXXXXXXXX  ",
"  XX..XXXXXX..XXXXXX..XXXXXX..XXXXXX..XXXXXX..XX  ",
"  XX..XXXXXX..XXXXXX..XXXXXX..XXXXXX..XXXXXX..XX  ",
"  XXXXXXXXXXXXXXXXXXXXXXXXXXXXXXXXXXXXXXXXXXXXXX  ",
"  XXXXXXXXXXXXXXXXXXXXXXXXXXXXXXXXXXXXXXXXXXXXXX  ",
"  XXXXXXXXXXXXXXXXXXXXXXXXXXXXXXXXXXXXXXXXXXXXXX  ",
"  XXXXXXXXXXXXXXXXXXXXXXXXXXXXXXXXXXXXXXXXXXXXXX  ",
"  XXXXXXXXXXXXXXXXXXXXXXXXXXXXXXXXXXXXXXXXXXXXXX  ",
"  XXXXXXXXXXXXXXXXXXXXXXXXXXXXXXXXXXXXXXXXXXXXXX  ",
"  XXXXXXXXXXXXXXXXXXXXXXXXXXXXXXXXXXXXXXXXXXXXXX  ",
"  XXXXXXXXXXXXXXXXXXXXXXXXXXXXXXXXXXXXXXXXXXXXXX  ",
"  XXXXXXXXXXXXXXXXXXXXXXXXXXXXXXXXXXXXXXXXXXXXXX  ",
"  XXXXXXXXXXXXXXXXXXXXXXXXXXXXXXXXXXXXXXXXXXXXXX  ",
"  XXXXXXXXXXXXXXXXXXXXXXXXXXXXXXXXXXXXXXXXXXXXXX  ",
"  XXXXXXXXXXXXXXXXXXXXXXXXXXXXXXXXXXXXXXXXXXXXXX  ",
"  XXXXXXXXXXXXXXXXXXXXXXXXXXXXXXXXXXXXXXXXXXXXXX  ",
"  XXXXXXXXXXXXXXXXXXXXXXXXXXXXXXXXXXXXXXXXXXXXXX  ",
"  XXXXXXXXXXXXXXXXXXXXXXXXXXXXXXXXXXXXXXXXXXXXXX  ",
"  XXXXXXXXXXXXXXXXXXXXXXXXXXXXXXXXXXXXXXXXXXXXXX  ",
"  XXXXXXXXXXXXXXXXXXXXXXXXXXXXXXXXXXXXXXXXXXXXXX  ",
"  XXXXXXXXXXXXXXXXXXXXXXXXXXXXXXXXXXXXXXXXXXXXXX  ",
"  XXXXXXXXXXXXXXXXXXXXXXXXXXXXXXXXXXXXXXXXXXXXXX  ",
"  XXXXXXXXXXXXXXXXXXXXXXXXXXXXXXXXXXXXXXXXXXXXXX  ",
"  XXXXXXXXXXXXXXXXXXXXXXXXXXXXXXXXXXXXXXXXXXXXXX  ",
"  XXXXXXXXXXXXXXXXXXXXXXXXXXXXXXXXXXXXXXXXXXXXXX  ",
"  XXXXXXXXXXXXXXXXXXXXXXXXXXXXXXXXXXXXXXXXXXXXXX  ",
"  XXXXXXXXXXXXXXXXXXXXXXXXXXXXXXXXXXXXXXXXXXXXXX  ",
"                                                  ",
"                                                  "
};
