/* XPM */
static char *row4pressed[] = {
/* columns rows colors chars-per-pixel */
"50 50 2 1 ",
"  c gray24",
". c #3BA318",
/* pixels */
"                                                  ",
"                                                  ",
"  ..............................................  ",
"  ..............................................  ",
"  ..............................................  ",
"  ..............................................  ",
"  ..............................................  ",
"  ..............................................  ",
"  ..............................................  ",
"  ..............................................  ",
"  ..............................................  ",
"  ..............................................  ",
"  ..............................................  ",
"  ..............................................  ",
"  ..............................................  ",
"  ..............................................  ",
"  ..............................................  ",
"  ..............................................  ",
"  ..............................................  ",
"  ..............................................  ",
"  ..............................................  ",
"  ..............................................  ",
"  ..............................................  ",
"  ..............................................  ",
"  ..............................................  ",
"  ..............................................  ",
"  ..............................................  ",
"  ..............................................  ",
"  ..............................................  ",
"  ..............................................  ",
"  ..............................................  ",
"  ..............................................  ",
"  ..............................................  ",
"  ..............................................  ",
"  ..............................................  ",
"  ..............................................  ",
"  ..............................................  ",
"  ..............................................  ",
"  ..............................................  ",
"  ..............................................  ",
"  ..............................................  ",
"  ..............................................  ",
"  ..............................................  ",
"  ..............................................  ",
"  ..............................................  ",
"  ..............................................  ",
"  ..............................................  ",
"  ..............................................  ",
"                                                  ",
"                                                  "
};
